<svg width="150" height="200" viewBox="0 0 150 200" fill="none" xmlns="http://www.w3.org/2000/svg">
<path d="M148.5 1.5H1.5V198.5H148.5V1.5Z" fill="white" stroke="#79D379" stroke-width="3"/>
<path d="M60.7202 45.7555C48.8848 47.7625 38.0543 54.1553 35.542 60.6968C33.4206 66.1232 37.5518 70.8063 47.4891 74.077C51.7878 75.5637 53.7976 75.7124 65.7447 75.7867C76.7427 75.7867 79.9249 75.5637 83.442 74.4487C88.5781 72.8133 91.3695 70.5833 91.5928 67.8329C91.8161 65.0825 89.8063 63.4471 84.2236 61.9604L79.7574 60.7711L83.3862 60.3251C90.5879 59.4331 98.5154 62.0348 100.302 65.9002C101.698 68.9479 98.5712 73.4823 92.9327 76.3814C89.1364 78.3884 81.488 79.8751 72.4998 80.3955L64.1815 80.8415L68.3127 82.9972C72.3882 85.1529 72.6115 85.2272 80.2598 84.7812C99.4086 83.7405 113.086 76.753 114.929 66.9409C115.822 62.1834 108.229 56.8313 97.5663 54.527C91.9836 53.3376 75.4028 53.2633 70.2109 54.4526C64.349 55.7163 60.4411 57.5004 58.9896 59.4331C56.589 62.6295 59.0454 65.9745 62.2276 63.8188C66.1355 61.1428 72.2765 62.9268 70.7133 66.3462C68.7035 70.5833 56.1424 70.5089 51.397 66.1975C45.9818 61.3658 51.8436 54.1553 63.5674 51.1819C66.303 50.5129 72.444 49.7695 77.1893 49.4722L85.8426 49.0262L81.7672 46.9448C78.0826 45.1608 77.0218 44.9378 71.1599 45.0121C67.587 45.0865 62.8975 45.4581 60.7202 45.7555Z" fill="#55C855" fill-opacity="0.79"/>
<path d="M41.1358 122.24C41.7864 122.379 42.3091 122.704 42.7038 123.216C43.0984 123.717 43.2958 124.293 43.2958 124.944C43.2958 125.883 42.9651 126.629 42.3038 127.184C41.6531 127.728 40.7411 128 39.5678 128H34.3358V116.768H39.3918C40.5331 116.768 41.4238 117.029 42.0638 117.552C42.7144 118.075 43.0398 118.784 43.0398 119.68C43.0398 120.341 42.8638 120.891 42.5118 121.328C42.1704 121.765 41.7118 122.069 41.1358 122.24ZM37.0718 121.312H38.8638C39.3118 121.312 39.6531 121.216 39.8878 121.024C40.1331 120.821 40.2558 120.528 40.2558 120.144C40.2558 119.76 40.1331 119.467 39.8878 119.264C39.6531 119.061 39.3118 118.96 38.8638 118.96H37.0718V121.312ZM39.0878 125.792C39.5464 125.792 39.8984 125.691 40.1438 125.488C40.3998 125.275 40.5278 124.971 40.5278 124.576C40.5278 124.181 40.3944 123.872 40.1278 123.648C39.8718 123.424 39.5144 123.312 39.0558 123.312H37.0718V125.792H39.0878ZM48.9466 128.128C48.072 128.128 47.2826 127.941 46.5786 127.568C45.8853 127.195 45.336 126.661 44.9306 125.968C44.536 125.275 44.3386 124.464 44.3386 123.536C44.3386 122.619 44.5413 121.813 44.9466 121.12C45.352 120.416 45.9066 119.877 46.6106 119.504C47.3146 119.131 48.104 118.944 48.9786 118.944C49.8533 118.944 50.6426 119.131 51.3466 119.504C52.0506 119.877 52.6053 120.416 53.0106 121.12C53.416 121.813 53.6186 122.619 53.6186 123.536C53.6186 124.453 53.4106 125.264 52.9946 125.968C52.5893 126.661 52.0293 127.195 51.3146 127.568C50.6106 127.941 49.8213 128.128 48.9466 128.128ZM48.9466 125.76C49.4693 125.76 49.912 125.568 50.2746 125.184C50.648 124.8 50.8346 124.251 50.8346 123.536C50.8346 122.821 50.6533 122.272 50.2906 121.888C49.9386 121.504 49.5013 121.312 48.9786 121.312C48.4453 121.312 48.0026 121.504 47.6506 121.888C47.2986 122.261 47.1226 122.811 47.1226 123.536C47.1226 124.251 47.2933 124.8 47.6346 125.184C47.9866 125.568 48.424 125.76 48.9466 125.76ZM59.1341 128.128C58.2595 128.128 57.4701 127.941 56.7661 127.568C56.0728 127.195 55.5235 126.661 55.1181 125.968C54.7235 125.275 54.5261 124.464 54.5261 123.536C54.5261 122.619 54.7288 121.813 55.1341 121.12C55.5395 120.416 56.0941 119.877 56.7981 119.504C57.5021 119.131 58.2915 118.944 59.1661 118.944C60.0408 118.944 60.8301 119.131 61.5341 119.504C62.2381 119.877 62.7928 120.416 63.1981 121.12C63.6035 121.813 63.8061 122.619 63.8061 123.536C63.8061 124.453 63.5981 125.264 63.1821 125.968C62.7768 126.661 62.2168 127.195 61.5021 127.568C60.7981 127.941 60.0088 128.128 59.1341 128.128ZM59.1341 125.76C59.6568 125.76 60.0995 125.568 60.4621 125.184C60.8355 124.8 61.0221 124.251 61.0221 123.536C61.0221 122.821 60.8408 122.272 60.4781 121.888C60.1261 121.504 59.6888 121.312 59.1661 121.312C58.6328 121.312 58.1901 121.504 57.8381 121.888C57.4861 122.261 57.3101 122.811 57.3101 123.536C57.3101 124.251 57.4808 124.8 57.8221 125.184C58.1741 125.568 58.6115 125.76 59.1341 125.76ZM70.7136 128L67.9936 124.256V128H65.2576V116.16H67.9936V122.704L70.6976 119.072H74.0736L70.3616 123.552L74.1056 128H70.7136ZM82.1709 128.128C81.3922 128.128 80.6989 127.995 80.0909 127.728C79.4829 127.461 79.0029 127.099 78.6509 126.64C78.2989 126.171 78.1015 125.648 78.0589 125.072H80.7629C80.7949 125.381 80.9389 125.632 81.1949 125.824C81.4509 126.016 81.7655 126.112 82.1389 126.112C82.4802 126.112 82.7415 126.048 82.9229 125.92C83.1149 125.781 83.2109 125.605 83.2109 125.392C83.2109 125.136 83.0775 124.949 82.8109 124.832C82.5442 124.704 82.1122 124.565 81.5149 124.416C80.8749 124.267 80.3415 124.112 79.9149 123.952C79.4882 123.781 79.1202 123.52 78.8109 123.168C78.5015 122.805 78.3469 122.32 78.3469 121.712C78.3469 121.2 78.4855 120.736 78.7629 120.32C79.0509 119.893 79.4669 119.557 80.0109 119.312C80.5655 119.067 81.2215 118.944 81.9789 118.944C83.0989 118.944 83.9789 119.221 84.6189 119.776C85.2695 120.331 85.6429 121.067 85.7389 121.984H83.2109C83.1682 121.675 83.0295 121.429 82.7949 121.248C82.5709 121.067 82.2722 120.976 81.8989 120.976C81.5789 120.976 81.3335 121.04 81.1629 121.168C80.9922 121.285 80.9069 121.451 80.9069 121.664C80.9069 121.92 81.0402 122.112 81.3069 122.24C81.5842 122.368 82.0109 122.496 82.5869 122.624C83.2482 122.795 83.7869 122.965 84.2029 123.136C84.6189 123.296 84.9815 123.563 85.2909 123.936C85.6109 124.299 85.7762 124.789 85.7869 125.408C85.7869 125.931 85.6375 126.4 85.3389 126.816C85.0509 127.221 84.6295 127.541 84.0749 127.776C83.5309 128.011 82.8962 128.128 82.1709 128.128ZM95.8767 123.392C95.8767 123.648 95.8608 123.915 95.8288 124.192H89.6368C89.6794 124.747 89.8554 125.173 90.1648 125.472C90.4848 125.76 90.8741 125.904 91.3328 125.904C92.0154 125.904 92.4901 125.616 92.7568 125.04H95.6688C95.5194 125.627 95.2474 126.155 94.8528 126.624C94.4688 127.093 93.9834 127.461 93.3968 127.728C92.8101 127.995 92.1541 128.128 91.4288 128.128C90.5541 128.128 89.7754 127.941 89.0928 127.568C88.4101 127.195 87.8768 126.661 87.4928 125.968C87.1088 125.275 86.9168 124.464 86.9168 123.536C86.9168 122.608 87.1034 121.797 87.4768 121.104C87.8608 120.411 88.3941 119.877 89.0768 119.504C89.7594 119.131 90.5434 118.944 91.4288 118.944C92.2928 118.944 93.0608 119.125 93.7328 119.488C94.4048 119.851 94.9274 120.368 95.3008 121.04C95.6848 121.712 95.8767 122.496 95.8767 123.392ZM93.0768 122.672C93.0768 122.203 92.9168 121.829 92.5968 121.552C92.2768 121.275 91.8768 121.136 91.3968 121.136C90.9381 121.136 90.5488 121.269 90.2288 121.536C89.9194 121.803 89.7274 122.181 89.6528 122.672H93.0768ZM108.712 118.976C109.821 118.976 110.701 119.312 111.352 119.984C112.013 120.656 112.344 121.589 112.344 122.784V128H109.624V123.152C109.624 122.576 109.469 122.133 109.16 121.824C108.861 121.504 108.445 121.344 107.912 121.344C107.379 121.344 106.957 121.504 106.648 121.824C106.349 122.133 106.2 122.576 106.2 123.152V128H103.48V123.152C103.48 122.576 103.325 122.133 103.016 121.824C102.717 121.504 102.301 121.344 101.768 121.344C101.235 121.344 100.813 121.504 100.504 121.824C100.205 122.133 100.056 122.576 100.056 123.152V128H97.3201V119.072H100.056V120.192C100.333 119.819 100.696 119.525 101.144 119.312C101.592 119.088 102.099 118.976 102.664 118.976C103.336 118.976 103.933 119.12 104.456 119.408C104.989 119.696 105.405 120.107 105.704 120.64C106.013 120.149 106.435 119.749 106.968 119.44C107.501 119.131 108.083 118.976 108.712 118.976ZM59.9934 142.976C61.1027 142.976 61.9827 143.312 62.6334 143.984C63.2947 144.656 63.6254 145.589 63.6254 146.784V152H60.9054V147.152C60.9054 146.576 60.7507 146.133 60.4414 145.824C60.1427 145.504 59.7267 145.344 59.1934 145.344C58.66 145.344 58.2387 145.504 57.9294 145.824C57.6307 146.133 57.4814 146.576 57.4814 147.152V152H54.7614V147.152C54.7614 146.576 54.6067 146.133 54.2974 145.824C53.9987 145.504 53.5827 145.344 53.0494 145.344C52.516 145.344 52.0947 145.504 51.7854 145.824C51.4867 146.133 51.3374 146.576 51.3374 147.152V152H48.6014V143.072H51.3374V144.192C51.6147 143.819 51.9774 143.525 52.4254 143.312C52.8734 143.088 53.38 142.976 53.9454 142.976C54.6174 142.976 55.2147 143.12 55.7374 143.408C56.2707 143.696 56.6867 144.107 56.9854 144.64C57.2947 144.149 57.716 143.749 58.2494 143.44C58.7827 143.131 59.364 142.976 59.9934 142.976ZM68.4829 143.072V152H65.7469V143.072H68.4829ZM68.9789 140.848L65.1229 142.464V140.576L68.9789 138.72V140.848ZM70.1355 147.52C70.1355 146.603 70.3062 145.797 70.6475 145.104C70.9995 144.411 71.4742 143.877 72.0715 143.504C72.6688 143.131 73.3355 142.944 74.0715 142.944C74.6582 142.944 75.1915 143.067 75.6715 143.312C76.1622 143.557 76.5462 143.888 76.8235 144.304V140.16H79.5595V152H76.8235V150.72C76.5675 151.147 76.1995 151.488 75.7195 151.744C75.2502 152 74.7008 152.128 74.0715 152.128C73.3355 152.128 72.6688 151.941 72.0715 151.568C71.4742 151.184 70.9995 150.645 70.6475 149.952C70.3062 149.248 70.1355 148.437 70.1355 147.52ZM76.8235 147.536C76.8235 146.853 76.6315 146.315 76.2475 145.92C75.8742 145.525 75.4155 145.328 74.8715 145.328C74.3275 145.328 73.8635 145.525 73.4795 145.92C73.1062 146.304 72.9195 146.837 72.9195 147.52C72.9195 148.203 73.1062 148.747 73.4795 149.152C73.8635 149.547 74.3275 149.744 74.8715 149.744C75.4155 149.744 75.8742 149.547 76.2475 149.152C76.6315 148.757 76.8235 148.219 76.8235 147.536ZM82.9149 142.144C82.4349 142.144 82.0402 142.005 81.7309 141.728C81.4322 141.44 81.2829 141.088 81.2829 140.672C81.2829 140.245 81.4322 139.893 81.7309 139.616C82.0402 139.328 82.4349 139.184 82.9149 139.184C83.3842 139.184 83.7682 139.328 84.0669 139.616C84.3762 139.893 84.5309 140.245 84.5309 140.672C84.5309 141.088 84.3762 141.44 84.0669 141.728C83.7682 142.005 83.3842 142.144 82.9149 142.144ZM84.2749 143.072V152H81.5389V143.072H84.2749ZM85.7136 147.52C85.7136 146.603 85.8843 145.797 86.2256 145.104C86.5776 144.411 87.0523 143.877 87.6496 143.504C88.247 143.131 88.9136 142.944 89.6496 142.944C90.279 142.944 90.8283 143.072 91.2976 143.328C91.7776 143.584 92.1456 143.92 92.4016 144.336V143.072H95.1376V152H92.4016V150.736C92.135 151.152 91.7616 151.488 91.2816 151.744C90.8123 152 90.263 152.128 89.6336 152.128C88.9083 152.128 88.247 151.941 87.6496 151.568C87.0523 151.184 86.5776 150.645 86.2256 149.952C85.8843 149.248 85.7136 148.437 85.7136 147.52ZM92.4016 147.536C92.4016 146.853 92.2096 146.315 91.8256 145.92C91.4523 145.525 90.9936 145.328 90.4496 145.328C89.9056 145.328 89.4416 145.525 89.0576 145.92C88.6843 146.304 88.4976 146.837 88.4976 147.52C88.4976 148.203 88.6843 148.747 89.0576 149.152C89.4416 149.547 89.9056 149.744 90.4496 149.744C90.9936 149.744 91.4523 149.547 91.8256 149.152C92.2096 148.757 92.4016 148.219 92.4016 147.536ZM100.717 140.368L100.397 148.032H98.077L97.757 140.368H100.717ZM99.277 152.128C98.797 152.128 98.4023 151.989 98.093 151.712C97.7943 151.424 97.645 151.072 97.645 150.656C97.645 150.229 97.7943 149.872 98.093 149.584C98.4023 149.296 98.797 149.152 99.277 149.152C99.7463 149.152 100.13 149.296 100.429 149.584C100.738 149.872 100.893 150.229 100.893 150.656C100.893 151.072 100.738 151.424 100.429 151.712C100.13 151.989 99.7463 152.128 99.277 152.128Z" fill="#636363"/>
</svg>
