<svg width="635" height="395" viewBox="0 0 635 395" fill="none" xmlns="http://www.w3.org/2000/svg">
<path d="M133.033 194.734H132.461C130.801 187.519 128.655 180.261 125.915 173.109L97.4053 171.55C97.4053 171.55 97.2538 172.536 97.0862 174.404C94.498 173.801 87.1093 172.186 80.3071 171.605V2.57235H133.033V194.734Z" fill="#515151"/>
<path d="M217.981 194.734H165.255V111.759H193.977C197.21 111.759 199.832 114.056 199.832 116.891V125.207C199.832 128.04 202.456 130.339 205.69 130.339H217.981V194.734V194.734ZM195.214 83.4252C190.538 83.4252 187.749 78.863 190.337 75.4519L194.46 70.0182C194.519 70.2806 194.583 70.543 194.652 70.8054C195.66 74.6616 197.578 78.1165 200.159 81.0449C199.119 82.4756 197.292 83.4252 195.214 83.4252ZM165.255 51.0307V3.42671H217.981V21.9597H191.244C189.321 21.9597 187.519 22.7875 186.426 24.1745L165.255 51.0307Z" fill="#515151"/>
<path d="M358.703 298.578H347.842V-1.65203e-06H400.568V156.586C398.336 156.18 396.101 155.983 393.893 155.983C379.318 155.983 365.901 164.53 362.015 177.581L349.901 218.255L358.703 220.16V298.578" fill="#515151"/>
<path d="M317.573 299.438H274.469V194.735H264.847V82.195L274.519 79.7804L264.847 51.4264V42.416L287.751 36.6621C288.157 36.5605 288.393 36.1888 288.277 35.8327L286.259 29.6665C286.163 29.3729 285.856 29.1807 285.523 29.1807C285.453 29.1807 285.382 29.1901 285.312 29.2073L264.847 34.3474V0.861084H317.573V299.438" fill="#515151"/>
<path d="M432.788 195.562H485.514V0.859164H432.788V195.562Z" fill="#515151"/>
<path d="M581.202 195.562H562.772C562.202 192.832 561.503 190.002 560.633 187.038C561.072 186.964 561.302 186.922 561.302 186.922C561.5 176.133 562.245 166.345 560.642 156.575C560.04 152.844 559.512 148.661 559.206 143.612C558.81 137.016 556.945 130.035 554.739 123.803C550.799 112.754 545.673 104.458 545.673 104.458L528.476 104.251V0.859164H581.202V195.562" fill="#515151"/>
<path d="M250.875 111.76H246.157C242.922 111.76 240.3 114.057 240.3 116.892V125.208C240.3 128.041 237.677 130.34 234.442 130.34H205.69C202.456 130.34 199.832 128.041 199.832 125.208V116.892C199.832 114.057 197.21 111.76 193.976 111.76H141.546C138.313 111.76 135.689 109.462 135.689 106.628V90.1359C135.689 89.0942 136.053 88.0774 136.728 87.2199L186.426 24.1754C187.518 22.7885 189.32 21.9607 191.244 21.9607H220.005C224.681 21.9607 227.471 26.5229 224.882 29.934L190.337 75.4529C187.748 78.864 190.538 83.4262 195.214 83.4262C198.449 83.4262 201.071 81.1287 201.071 78.2939V71.9918C201.071 69.157 203.693 66.8595 206.928 66.8595H234.442C237.677 66.8595 240.3 69.157 240.3 71.9918V78.2939C240.3 81.1287 242.922 83.4262 246.157 83.4262H250.875C254.111 83.4262 256.733 85.7237 256.733 88.5585V106.628C256.733 109.462 254.111 111.76 250.875 111.76" fill="#F2F2F2"/>
<path d="M332.712 76.1509C332.712 57.8818 328.001 48.7465 318.578 48.7465C309.15 48.7465 304.441 57.8818 304.441 76.1509C304.441 94.42 309.15 103.555 318.578 103.555C328.001 103.555 332.712 94.42 332.712 76.1509ZM289.51 126.082C281.086 121.593 274.49 115.09 269.718 106.574C264.948 98.0591 262.562 87.918 262.562 76.1509C262.562 64.3838 264.948 54.2427 269.718 45.7274C274.49 37.2121 281.086 30.7086 289.51 26.2198C297.929 21.7294 307.621 19.4834 318.578 19.4834C329.534 19.4834 339.22 21.7294 347.644 26.2198C356.067 30.7086 362.664 37.2121 367.436 45.7274C372.208 54.2427 374.593 64.3838 374.593 76.1509C374.593 87.918 372.208 98.0591 367.436 106.574C362.664 115.09 356.067 121.593 347.644 126.082C339.22 130.572 329.534 132.818 318.578 132.818C307.621 132.818 297.929 130.572 289.51 126.082Z" fill="#F2F2F2"/>
<path d="M498.964 111.76H494.244C491.011 111.76 488.387 114.057 488.387 116.892V125.208C488.387 128.042 485.765 130.34 482.531 130.34H453.779C450.543 130.34 447.921 128.042 447.921 125.208V116.892C447.921 114.057 445.299 111.76 442.064 111.76H389.637C386.402 111.76 383.78 109.462 383.78 106.628V90.1359C383.78 89.0942 384.142 88.0774 384.817 87.22L434.513 24.1754C435.607 22.7885 437.408 21.9591 439.333 21.9591H468.094C472.768 21.9591 475.56 26.5229 472.971 29.934L438.424 75.4529C435.836 78.864 438.627 83.4262 443.303 83.4262C446.536 83.4262 449.158 81.1287 449.158 78.2939V71.9918C449.158 69.157 451.781 66.8595 455.016 66.8595H482.531C485.765 66.8595 488.387 69.157 488.387 71.9918V78.2939C488.387 81.1287 491.011 83.4262 494.244 83.4262H498.964C502.198 83.4262 504.822 85.7237 504.822 88.5585V106.628C504.822 109.462 502.198 111.76 498.964 111.76" fill="#F2F2F2"/>
<path d="M240.781 111.207H236.061C232.825 111.207 230.203 113.505 230.203 116.339V124.655C230.203 127.49 227.581 129.787 224.346 129.787H195.595C192.36 129.787 189.738 127.49 189.738 124.655V116.339C189.738 113.505 187.115 111.207 183.88 111.207H131.452C128.217 111.207 125.594 108.91 125.594 106.075V89.5832C125.594 88.5415 125.956 87.5247 126.632 86.6672L176.329 23.6226C177.424 22.2357 179.224 21.4079 181.149 21.4079H209.909C214.585 21.4079 217.376 25.9701 214.788 29.3812L180.24 74.9001C177.652 78.3112 180.443 82.8734 185.117 82.8734C188.353 82.8734 190.975 80.5759 190.975 77.7412V71.439C190.975 68.6043 193.597 66.3068 196.832 66.3068H224.346C227.581 66.3068 230.203 68.6043 230.203 71.439V77.7412C230.203 80.5759 232.825 82.8734 236.061 82.8734H240.781C244.014 82.8734 246.637 85.171 246.637 88.0057V106.075C246.637 108.91 244.014 111.207 240.781 111.207" fill="#DDDDDD"/>
<path d="M322.617 75.5962C322.617 57.3271 317.906 48.1917 308.482 48.1917C299.056 48.1917 294.346 57.3271 294.346 75.5962C294.346 93.8653 299.056 103.001 308.482 103.001C317.906 103.001 322.617 93.8653 322.617 75.5962ZM279.414 125.527C270.99 121.039 264.394 114.535 259.622 106.02C254.852 97.5044 252.465 87.3633 252.465 75.5962C252.465 63.8291 254.852 53.688 259.622 45.1727C264.394 36.6574 270.99 30.1538 279.414 25.665C287.835 21.1747 297.526 18.9287 308.482 18.9287C319.437 18.9287 329.125 21.1747 337.55 25.665C345.971 30.1538 352.57 36.6574 357.341 45.1727C362.111 53.688 364.496 63.8291 364.496 75.5962C364.496 87.3633 362.111 97.5044 357.341 106.02C352.57 114.535 345.971 121.039 337.55 125.527C329.125 130.019 319.437 132.264 308.482 132.264C297.526 132.264 287.835 130.019 279.414 125.527Z" fill="#DDDDDD"/>
<path d="M488.868 111.207H484.15C480.915 111.207 478.293 113.505 478.293 116.339V124.655C478.293 127.49 475.67 129.787 472.435 129.787H443.684C440.449 129.787 437.827 127.49 437.827 124.655V116.339C437.827 113.505 435.205 111.207 431.97 111.207H379.541C376.306 111.207 373.684 108.91 373.684 106.075V89.5832C373.684 88.5415 374.046 87.5247 374.721 86.6672L424.419 23.6226C425.511 22.2357 427.314 21.4079 429.237 21.4079H457.998C462.674 21.4079 465.464 25.9701 462.875 29.3812L428.33 74.9001C425.741 78.3112 428.531 82.8734 433.207 82.8734C436.442 82.8734 439.064 80.5759 439.064 77.7412V71.439C439.064 68.6043 441.686 66.3068 444.921 66.3068H472.435C475.67 66.3068 478.293 68.6043 478.293 71.439V77.7412C478.293 80.5759 480.915 82.8734 484.15 82.8734H488.868C492.104 82.8734 494.726 85.171 494.726 88.0057V106.075C494.726 108.91 492.104 111.207 488.868 111.207" fill="#DDDDDD"/>
<path d="M250.485 265.246C251.563 266.023 251.757 267.381 250.913 268.28C250.069 269.18 248.508 269.278 247.429 268.502C246.351 267.724 246.166 266.367 247.009 265.467C247.854 264.568 249.406 264.469 250.485 265.246ZM260.444 271.078C259.754 270.582 259.636 269.709 260.176 269.135C260.718 268.555 261.715 268.493 262.405 268.989C263.098 269.489 263.219 270.358 262.677 270.935C262.137 271.51 261.137 271.577 260.444 271.078V271.078ZM259.658 260.488C258.966 259.99 258.843 259.12 259.387 258.542C259.925 257.967 260.923 257.903 261.617 258.403C262.305 258.9 262.426 259.77 261.888 260.344C261.346 260.922 260.348 260.985 259.658 260.488ZM258.369 252.204C255.43 250.086 262.016 250.367 262.068 247.011C262.112 243.654 257.435 242.244 257.435 242.244C257.435 242.244 259.192 247.443 256.818 247.693C254.437 247.943 255.966 242.439 255.966 242.439C255.966 242.439 251.577 239.811 248.323 240.31C245.071 240.806 242.262 245.785 242.262 245.785C242.262 245.785 251.426 250.239 248.581 253.727C245.734 257.218 241.633 246.759 241.633 246.759C231.169 254.94 248.916 256.115 246.766 259.745C244.617 263.376 237.467 253.935 237.467 253.935C231.773 262.514 245.765 261.522 242.868 263.901C239.966 266.275 235.296 260.586 235.296 260.586C231.149 269.567 246.613 266.781 244.128 268.56C241.64 270.342 235.855 267.064 235.855 267.064C235.813 267.34 235.795 267.605 235.804 267.865C235.807 268.151 235.834 268.425 235.889 268.686C236.531 271.977 240.568 273.678 240.568 273.678C244.832 272.104 247.05 273.164 247.05 273.164C246.034 274.935 240.41 274.992 240.41 274.992C240.41 274.992 242.957 280.039 248.841 281.067C254.308 282.018 254.74 274.521 255.782 273.505C255.864 273.423 255.95 273.383 256.043 273.392C256.121 273.397 256.194 273.405 256.266 273.417L256.269 273.42C259.679 273.87 260.422 278.371 265.447 275.702C270.581 272.971 272.697 265.922 270.781 262.937C268.872 259.954 260.661 267.79 260.709 265.683C260.761 263.579 269.161 262.84 270.74 259.332C272.316 255.828 267.496 250.922 267.496 250.922C267.496 250.922 266.194 252.307 263.738 254.469C261.283 256.629 256.499 256.932 263.032 252.708C269.569 248.488 263.184 245.821 263.184 245.821C263.184 245.821 261.308 254.322 258.369 252.204" fill="#3D2C63"/>
<path d="M0 303.932H274.469V194.739H0V303.932Z" fill="#F2F2F2"/>
<path d="M0 303.932H74.423V194.739H0V303.932Z" fill="#DDDDDD"/>
<path d="M84.0808 243.451H266.416V202.109H84.0808V243.451Z" fill="#DDDDDD"/>
<path d="M83.7083 293.574H266.043V252.232H83.7083V293.574Z" fill="#DDDDDD"/>
<path d="M358.703 304.756H633.172V195.565H358.703V304.756Z" fill="#F2F2F2"/>
<path d="M558.749 304.756H633.172V195.565H558.749V304.756Z" fill="#DDDDDD"/>
<path d="M366.756 244.275H549.091V202.933H366.756V244.275Z" fill="#DDDDDD"/>
<path d="M367.13 294.402H549.464V253.06H367.13V294.402Z" fill="#DDDDDD"/>
<path d="M484.403 298.979L475.342 297.784L475.804 294.404L476.087 292.333L476.656 292.408C476.654 292.411 476.654 292.412 476.654 292.416L476.916 292.442L488.196 293.931L487.842 294.404L484.403 298.979Z" fill="url(#paint0_linear)"/>
<path d="M463.443 301.789L485.247 303.888C486.16 303.975 486.987 303.393 487.089 302.595L487.515 299.185C487.716 297.575 487.878 296.289 486.736 296.18L486.534 296.235C482.809 297.244 478.763 296.744 475.5 294.871C472.657 294.779 472.196 295.676 469.75 296.444C467.859 297.039 466.258 297.7 465.197 298.131C464.272 298.509 463.588 299.226 463.326 300.082C463.31 300.135 463.292 300.191 463.279 300.249C462.848 302.081 463.443 301.789 463.443 301.789" fill="url(#paint1_linear)"/>
<path d="M463.444 301.791L467.565 302.188C469.235 300.554 469.65 297.866 469.75 296.446C467.859 297.041 466.258 297.702 465.198 298.133C464.273 298.511 463.588 299.228 463.326 300.084C463.31 300.137 463.292 300.193 463.28 300.251C462.848 302.083 463.444 301.791 463.444 301.791" fill="#EAEAEA"/>
<path d="M463.444 301.787L485.248 303.886C486.162 303.973 486.988 303.392 487.089 302.593L487.116 302.369L463.326 300.079C463.31 300.133 463.292 300.189 463.28 300.247C462.848 302.079 463.444 301.787 463.444 301.787" fill="#3D2C63"/>
<path d="M474.843 297.923C474.893 297.928 474.943 297.926 474.995 297.918C475.273 297.872 475.456 297.637 475.403 297.394L474.918 295.131C474.866 294.887 474.597 294.725 474.319 294.773C474.041 294.818 473.857 295.053 473.911 295.298L474.396 297.559C474.439 297.759 474.624 297.903 474.843 297.923" fill="#3D2C63"/>
<path d="M472.565 298.131C472.608 298.136 472.653 298.136 472.699 298.13C472.979 298.092 473.171 297.863 473.129 297.618L472.751 295.442C472.708 295.197 472.446 295.028 472.166 295.064C471.886 295.101 471.694 295.331 471.736 295.576L472.114 297.752C472.15 297.958 472.339 298.11 472.565 298.131Z" fill="#3D2C63"/>
<path d="M489.255 294.074L488.196 293.935L476.916 292.447L477.165 292.473C481.479 261.028 487.741 236.418 492.235 221.31C496.948 205.467 500.752 196.48 501.026 195.838C506.26 191.757 509.784 186.285 509.83 186.212L509.615 186.106C515.194 187.463 520.961 188.238 526.522 188.625C524.681 201.09 524.923 212.387 526.581 222.535C522.246 229.296 517.909 236.773 513.805 244.284C513.312 245.188 512.82 246.092 512.333 246.997C512.315 247.009 512.31 247.037 512.306 247.053C511.221 249.066 510.153 251.075 509.11 253.066C497.802 274.638 489.255 294.074 489.255 294.074V294.074ZM476.656 292.412L476.087 292.337L474.927 292.184C474.927 292.184 475.083 275.955 479.244 253.066C479.759 250.233 480.335 247.301 480.978 244.284C483.7 231.543 487.647 217.302 493.36 202.941C493.871 201.657 494.395 200.373 494.934 199.09L495.035 199.297C496.878 198.615 498.624 197.604 500.226 196.439C499.18 198.986 495.795 207.553 491.739 221.187C487.242 236.309 480.973 260.941 476.656 292.412V292.412ZM495.057 198.797C495.511 197.721 495.975 196.644 496.449 195.569C498.18 191.646 500.051 187.724 502.073 183.843C504.438 184.703 506.875 185.429 509.347 186.04C508.859 186.79 502.848 195.783 495.057 198.797Z" fill="url(#paint2_linear)"/>
<path d="M579.169 295.643L575.127 292.547C577.163 292.005 581.128 290.862 583.96 289.489C583.973 289.503 583.981 289.512 583.985 289.517L584.179 289.381C584.755 289.094 585.277 288.797 585.719 288.494L587.536 292.374L579.169 295.643" fill="url(#paint3_linear)"/>
<path d="M569.831 305.446L590.143 298.188C590.994 297.884 591.404 297.026 591.058 296.283L589.578 293.106C588.881 291.608 588.323 290.408 587.261 290.79L587.113 290.922C584.386 293.365 580.557 294.615 576.669 294.33C574.12 295.436 574.202 296.417 572.47 298.113C571.131 299.427 570.083 300.676 569.384 301.498C568.776 302.216 568.566 303.131 568.801 303.994C568.815 304.047 568.83 304.105 568.851 304.161C569.468 305.951 569.831 305.446 569.831 305.446" fill="url(#paint4_linear)"/>
<path d="M569.832 305.444L573.672 304.073C574.251 301.938 573.155 299.401 572.47 298.111C571.131 299.425 570.083 300.674 569.384 301.496C568.776 302.214 568.566 303.13 568.801 303.992C568.816 304.045 568.83 304.103 568.851 304.159C569.468 305.949 569.832 305.444 569.832 305.444" fill="#EAEAEA"/>
<path d="M569.831 305.444L590.143 298.186C590.993 297.882 591.405 297.026 591.057 296.281L590.961 296.073L568.801 303.992C568.815 304.045 568.829 304.103 568.85 304.159C569.467 305.949 569.831 305.444 569.831 305.444" fill="#3D2C63"/>
<path d="M577.753 297.292C577.799 297.275 577.844 297.253 577.883 297.223C578.104 297.067 578.136 296.784 577.958 296.59L576.302 294.804C576.122 294.612 575.798 294.582 575.58 294.74C575.359 294.896 575.327 295.179 575.506 295.372L577.161 297.157C577.308 297.315 577.55 297.364 577.753 297.292" fill="#3D2C63"/>
<path d="M575.862 298.418C575.901 298.404 575.94 298.384 575.978 298.36C576.202 298.21 576.247 297.928 576.078 297.731L574.561 295.975C574.39 295.777 574.069 295.738 573.842 295.888C573.616 296.038 573.571 296.321 573.742 296.517L575.258 298.273C575.402 298.438 575.652 298.493 575.862 298.418Z" fill="#3D2C63"/>
<path d="M573.808 292.883C573.808 292.883 567.141 289.092 558.749 281.291C555.795 278.546 552.628 275.304 549.464 271.559C545.081 266.37 540.699 260.212 536.893 253.058C535.414 250.281 534.023 247.355 532.752 244.276C530.043 237.718 527.879 230.475 526.581 222.527C524.924 212.38 524.681 201.083 526.522 188.618C529.806 188.846 533.016 188.939 536.08 188.939C536.3 188.939 536.519 188.939 536.736 188.939C537.849 191.123 541.353 196.675 549.947 201.242C549.737 250.577 582.872 288.268 583.96 289.487C581.127 290.86 577.163 292.003 575.127 292.545C574.314 292.763 573.808 292.883 573.808 292.883V292.883ZM584.179 289.38L584.388 289.234C584.047 288.858 550.369 251.128 550.46 201.511C554.147 203.408 558.735 205.117 564.423 206.318L564.487 206.084C567.261 228.959 564.241 247.442 587.02 287.23C586.78 287.657 586.323 288.08 585.719 288.492C585.277 288.795 584.755 289.092 584.179 289.38V289.38ZM564.459 205.861C545.54 201.843 539 192.172 537.3 188.935C548.879 188.842 558.132 187.449 560.633 187.037C561.503 190.001 562.202 192.831 562.772 195.562C563.523 199.14 564.052 202.546 564.459 205.861" fill="url(#paint5_linear)"/>
<path d="M453.144 94.0683C453.144 94.0683 461.977 94.073 461.948 93.8965C461.92 93.7201 465.249 83.4415 463.289 84.9487C461.33 86.4558 459.741 89.9232 459.501 83.2384C459.26 76.5099 455.488 72.0618 452.884 77.4346C450.278 82.8074 452.593 90.3917 453.144 94.0683" fill="url(#paint6_linear)"/>
<path d="M493.722 134.038C491.581 135.753 488.03 136.874 485.239 137.736C469.918 140.888 457.337 138.653 453.039 93.4371L462.187 93.0263C462.187 93.0263 476.959 114.877 478.059 117.012C478.442 117.754 480.947 117.662 483.276 116.753L493.722 134.038" fill="url(#paint7_linear)"/>
<path d="M490.868 136.381C496.148 134.144 512.225 130.618 520.892 126.415C526.82 112.23 515.842 106.078 515.842 106.078C515.842 106.078 513.236 105.158 481.578 116.937C481.578 116.937 484.05 124.542 485.171 126.969C486.392 129.609 490.868 136.381 490.868 136.381Z" fill="url(#paint8_linear)"/>
<path d="M536.081 188.941C533.016 188.941 529.806 188.848 526.523 188.62C520.961 188.232 515.195 187.458 509.615 186.1L509.38 185.986C509.378 185.989 509.368 186.007 509.348 186.035C506.876 185.424 504.439 184.698 502.073 183.837C502.002 183.812 501.933 183.787 501.861 183.761C501.861 183.761 493.722 148.858 503.234 123.42C498.756 106.592 522.988 104.187 522.988 104.187L528.476 104.253L545.673 104.459C545.673 104.459 550.799 112.755 554.739 123.804C556.945 130.036 558.81 137.017 559.206 143.613C559.512 148.663 560.04 152.845 560.642 156.577C562.245 166.346 561.5 176.134 561.302 186.923C561.302 186.923 561.072 186.966 560.633 187.039C558.132 187.451 548.879 188.845 537.3 188.937C536.952 188.276 536.808 187.884 536.799 187.861L536.307 187.993C536.314 188.015 536.441 188.359 536.737 188.941C536.519 188.941 536.3 188.941 536.081 188.941" fill="url(#paint9_linear)"/>
<path d="M522.648 104.63C522.648 104.63 525.53 101.745 525.324 96.1549H536.299C536.299 96.1549 536.366 100.122 539.179 104.269C539.179 104.269 531.361 111.121 522.648 104.63" fill="url(#paint10_linear)"/>
<path d="M521.311 85.6415C521.311 85.6415 519.926 92.7151 521.637 94.0677C521.637 94.0677 525.099 94.277 523.694 87.2689C522.29 80.2609 521.311 85.6415 521.311 85.6415" fill="#29114D"/>
<path d="M519.613 92.5414C519.613 94.1439 521.17 95.4434 523.091 95.4434C525.011 95.4434 526.569 94.1439 526.569 92.5414C526.569 90.9374 525.011 89.6379 523.091 89.6379C521.17 89.6379 519.613 90.9374 519.613 92.5414Z" fill="url(#paint11_linear)"/>
<path d="M539.455 85.2713C539.455 85.2713 544.013 100.737 531.723 100.935C518.213 101.152 522.051 85.5509 522.051 85.5509C522.051 85.5509 529.826 75.8064 539.455 85.2713Z" fill="url(#paint12_linear)"/>
<path d="M539.113 96.9287C538.921 97.0959 533.771 90.0128 534.696 85.7396C519.614 86.3862 519.614 89.0523 516.589 79.9888C516.589 79.9888 526.687 75.2845 535.265 77.3055C543.767 79.3078 541.837 85.7396 541.837 85.7396C541.837 85.7396 545.853 91.0358 539.113 96.9287" fill="#29114D"/>
<path d="M540.464 86.5705C540.464 86.5705 536.703 86.3612 534.385 87.0312C534.385 87.0312 538.008 85.51 539.357 85.7677C540.708 86.027 540.464 86.5705 540.464 86.5705Z" fill="#29114D"/>
<path d="M534.116 92.6757C534.116 94.2048 535.601 95.4434 537.434 95.4434C539.264 95.4434 540.751 94.2048 540.751 92.6757C540.751 91.1467 539.264 89.9081 537.434 89.9081C535.601 89.9081 534.116 91.1467 534.116 92.6757Z" fill="url(#paint13_linear)"/>
<path d="M530.337 95.6006L525.136 95.4131C525.136 95.4131 525.35 98.7852 527.915 98.4104C530.48 98.0355 530.337 95.6006 530.337 95.6006Z" fill="#29114D"/>
<path d="M530.457 90.548C530.457 91.0322 530.904 91.4258 531.459 91.4258C532.011 91.4258 532.461 91.0322 532.461 90.548C532.461 90.0638 532.011 89.6702 531.459 89.6702C530.904 89.6702 530.457 90.0638 530.457 90.548Z" fill="#29114D"/>
<path d="M523.405 90.591C523.405 91.0752 523.854 91.4688 524.407 91.4688C524.961 91.4688 525.409 91.0752 525.409 90.591C525.409 90.1068 524.961 89.7132 524.407 89.7132C523.854 89.7132 523.405 90.1068 523.405 90.591Z" fill="#29114D"/>
<path d="M498.619 133.912L500.113 118.996C500.113 118.996 501.455 123.462 500.671 133.317L498.619 133.912" fill="#3D2C63"/>
<path d="M550.204 128.273C550.204 128.273 555.058 136.994 556.911 145.275C557.981 150.058 558.273 153.733 560.642 156.58C560.04 152.849 559.512 148.666 559.206 143.617C558.81 137.021 556.945 130.039 554.738 123.807C550.876 124.106 550.204 128.273 550.204 128.273" fill="#3D2C63"/>
<path d="M579.964 125.647C582.181 128.072 583.853 129.311 586.284 131.914C597.014 144.442 600.479 157.477 600.855 173.249L592.855 174.375C592.855 174.375 578.664 152.392 569.234 144.464C567.554 143.052 564.227 139.908 562.741 138.091L579.964 125.647" fill="url(#paint14_linear)"/>
<path d="M581.655 126.008C574.336 118.383 573.33 117.855 569.76 114.6C568.232 113.21 566.568 111.918 564.749 110.829C548.562 101.135 539.179 105.644 539.179 105.644C539.179 105.644 534.139 117.597 563.295 139.627C563.295 139.627 570.826 135.271 573.129 133.601C575.634 131.786 581.655 126.008 581.655 126.008" fill="url(#paint15_linear)"/>
<path d="M583.985 289.518C583.981 289.513 583.972 289.504 583.96 289.489C584.035 289.454 584.108 289.418 584.179 289.382L583.985 289.518Z" fill="url(#paint16_linear)"/>
<path d="M583.96 289.492C582.873 288.272 549.737 250.582 549.947 201.247C550.117 201.338 550.288 201.427 550.461 201.516C550.37 251.133 584.048 288.863 584.388 289.239L584.18 289.384C584.108 289.42 584.035 289.456 583.96 289.492" fill="url(#paint17_linear)"/>
<path d="M564.488 206.088C564.479 206.015 564.468 205.938 564.459 205.865C564.487 205.871 564.516 205.877 564.543 205.882L564.488 206.088" fill="#747474"/>
<path d="M564.423 206.322C558.735 205.121 554.147 203.413 550.461 201.515C550.462 201.391 550.462 201.265 550.462 201.14L549.947 201.138C549.947 201.174 549.947 201.21 549.947 201.246C541.354 196.679 537.849 191.127 536.737 188.944C536.926 188.942 537.113 188.94 537.3 188.939C539.001 192.177 545.541 201.848 564.459 205.865C564.468 205.938 564.478 206.015 564.487 206.088L564.423 206.322" fill="url(#paint18_linear)"/>
<path d="M536.737 188.941C536.441 188.359 536.314 188.015 536.307 187.993L536.799 187.861C536.808 187.884 536.952 188.276 537.3 188.937C537.113 188.938 536.926 188.94 536.737 188.941" fill="url(#paint19_linear)"/>
<path d="M550.462 201.514C550.288 201.424 550.117 201.335 549.947 201.244C549.947 201.208 549.947 201.172 549.947 201.136L550.464 201.137C550.464 201.263 550.464 201.39 550.462 201.514Z" fill="url(#paint20_linear)"/>
<path d="M494.934 199.082L494.834 198.875C494.909 198.846 494.984 198.818 495.057 198.79C495.016 198.889 494.977 198.982 494.934 199.082" fill="#7F7F7F"/>
<path d="M495.036 199.291L494.935 199.083C494.977 198.983 495.017 198.89 495.058 198.791C502.849 195.777 508.86 186.784 509.348 186.034C509.439 186.057 509.527 186.078 509.616 186.1L509.831 186.206C509.785 186.279 506.261 191.75 501.027 195.831C501.036 195.81 501.042 195.797 501.042 195.794L500.56 195.635C500.555 195.649 500.439 195.917 500.227 196.433C498.625 197.598 496.879 198.608 495.036 199.291" fill="url(#paint21_linear)"/>
<path d="M509.614 186.104C509.526 186.082 509.438 186.061 509.348 186.038C509.367 186.01 509.378 185.993 509.38 185.99L509.614 186.104" fill="url(#paint22_linear)"/>
<path d="M476.916 292.447L476.654 292.421C476.654 292.418 476.654 292.416 476.656 292.413L476.916 292.447Z" fill="url(#paint23_linear)"/>
<path d="M477.166 292.471L476.916 292.444L476.656 292.41C480.973 260.938 487.243 236.306 491.74 221.184C495.795 207.551 499.181 198.984 500.227 196.437C500.498 196.24 500.763 196.04 501.027 195.835C500.753 196.477 496.949 205.464 492.236 221.308C487.742 236.416 481.48 261.026 477.166 292.471Z" fill="url(#paint24_linear)"/>
<path d="M500.227 196.436C500.439 195.92 500.555 195.651 500.56 195.637L501.041 195.797C501.041 195.8 501.036 195.812 501.027 195.834C500.763 196.039 500.497 196.239 500.227 196.436" fill="url(#paint25_linear)"/>
<path d="M525.238 210.649L510.013 251.35C510.013 251.35 523.747 226.853 526.583 222.533L525.238 210.649Z" fill="#3D2C63"/>
<path d="M573.071 192.506C554.951 192.506 539.963 187.411 527.637 177.136C512.894 164.844 504.359 147.37 496.106 130.472C486.778 111.372 477.967 93.3307 461.875 88.8169C454.786 86.8287 448.335 87.4971 442.161 90.8645C415.011 105.669 404.72 164.609 404.618 165.203L395.444 164.007C395.882 161.431 406.506 100.732 437.26 83.9642C445.767 79.3255 455 78.354 464.704 81.0763C484.829 86.7209 494.45 106.419 504.635 127.273C520.461 159.68 536.824 193.192 593.784 182.24L621.338 174.427C623.775 173.737 626.39 174.908 627.178 177.043C627.966 179.178 626.629 181.47 624.19 182.16L596.001 190.133C587.851 191.712 580.217 192.506 573.071 192.506" fill="#3D2C63"/>
<path d="M601.059 172.21C601.059 172.21 592.769 173.51 592.831 173.679C592.895 173.849 591.69 184.481 593.316 182.694C594.94 180.907 595.806 177.248 597.389 183.79C598.983 190.377 603.591 194.17 605.072 188.479C606.553 182.787 602.341 175.745 601.059 172.21" fill="url(#paint26_linear)"/>
<path d="M416.315 232.646L366.757 221.91L358.703 220.166L349.901 218.26L362.015 177.586C365.901 164.535 379.318 155.989 393.892 155.989C396.101 155.989 398.336 156.185 400.568 156.592C401.675 156.793 402.784 157.048 403.885 157.354C419.969 161.832 429.595 176.229 426.187 190.71L425.044 195.565L423.308 202.937L416.315 232.646V232.646ZM386.571 162.269C386.571 162.269 372.25 166.833 367.694 179.951C363.138 193.069 359.233 209.893 359.233 209.893L372.25 210.179L386.571 162.269Z" fill="url(#paint27_linear)"/>
<path d="M416.293 233.757C415.233 237.616 399.316 237.566 380.744 233.646C362.172 229.727 347.976 223.42 349.036 219.561C350.097 215.703 366.013 215.752 384.585 219.672C403.158 223.592 417.354 229.898 416.293 233.757Z" fill="#3D2C63"/>
<path d="M376.192 222.38C376.46 223.682 373.802 225.19 370.258 225.747C366.714 226.305 363.625 225.702 363.358 224.399C363.09 223.097 365.748 221.59 369.292 221.032C372.836 220.474 375.927 221.077 376.192 222.38Z" fill="url(#paint28_linear)"/>
<path d="M399.597 228.667C399.864 229.97 397.207 231.477 393.663 232.034C390.119 232.592 387.03 231.989 386.762 230.686C386.495 229.384 389.153 227.877 392.697 227.319C396.24 226.761 399.33 227.364 399.597 228.667Z" fill="url(#paint29_linear)"/>
<path d="M130.995 299.373H119.635L118.425 293.574L118.135 292.184H130.823L131.074 292.237C131.076 292.231 131.081 292.214 131.088 292.184H132.061L131.855 293.574L130.995 299.373Z" fill="url(#paint30_linear)"/>
<path d="M133.553 300.579L133.503 304.095V304.231L133.466 306.711L116.473 306.52L116.51 303.9H116.516L116.532 302.605L116.566 300.389C116.605 297.807 118.721 295.739 121.296 295.769L128.961 295.851C131.537 295.881 133.592 297.999 133.553 300.579" fill="url(#paint31_linear)"/>
<path d="M128.903 297.934L121.547 297.851C121.504 297.851 121.472 297.821 121.472 297.784L121.488 296.667C121.49 296.631 121.523 296.601 121.564 296.601L128.923 296.686C128.964 296.686 128.998 296.715 128.998 296.753L128.98 297.869C128.98 297.905 128.946 297.935 128.903 297.934" fill="url(#paint32_linear)"/>
<path d="M128.875 299.895L121.518 299.812C121.475 299.812 121.443 299.781 121.443 299.745L121.459 298.628C121.459 298.59 121.495 298.562 121.536 298.562L128.892 298.645C128.935 298.645 128.969 298.676 128.967 298.712L128.951 299.829C128.951 299.865 128.917 299.895 128.875 299.895Z" fill="url(#paint33_linear)"/>
<path d="M133.503 304.231L133.466 306.711L116.473 306.52L116.51 303.9H116.516L116.532 302.605C117.858 301.402 119.696 300.637 121.747 300.581L126.405 300.451C129.45 300.368 132.134 301.863 133.423 304.093C133.453 304.137 133.478 304.185 133.503 304.231Z" fill="#EAEAEA"/>
<path d="M133.503 304.095V304.231L133.466 306.711L116.473 306.52L116.51 303.9H116.516L133.423 304.093L133.503 304.095Z" fill="url(#paint34_linear)"/>
<path d="M71.3963 300.008L60.1252 298.771L59.6528 291.432C60.2589 291.741 61.0842 291.972 62.0343 292.144C62.0343 292.167 62.0343 292.183 62.0343 292.191L62.2821 292.186C64.2037 292.506 66.5798 292.597 68.6672 292.597C71.1717 292.597 73.259 292.466 73.6369 292.441L71.3963 300.008" fill="url(#paint35_linear)"/>
<path d="M74.0006 300.579L73.9489 304.095V304.231L73.9132 306.711L56.9185 306.52L56.9559 303.9H56.9612L56.9773 302.605L57.0129 300.389C57.0504 297.807 59.168 295.739 61.742 295.769L69.4087 295.851C71.9827 295.881 74.038 297.999 74.0006 300.579" fill="url(#paint36_linear)"/>
<path d="M69.3502 297.934L61.9919 297.851C61.9509 297.851 61.917 297.821 61.917 297.784L61.9348 296.667C61.9348 296.631 61.9687 296.601 62.0115 296.601L69.3681 296.686C69.409 296.686 69.4429 296.715 69.4429 296.753L69.4269 297.869C69.4251 297.905 69.3912 297.935 69.3502 297.934" fill="url(#paint37_linear)"/>
<path d="M69.3193 299.895L61.9628 299.812C61.9218 299.812 61.8879 299.781 61.8879 299.745L61.904 298.628C61.9058 298.59 61.9396 298.562 61.9806 298.562L69.3389 298.645C69.3799 298.645 69.4138 298.676 69.4138 298.712L69.3977 299.829C69.3959 299.865 69.3621 299.895 69.3193 299.895" fill="url(#paint38_linear)"/>
<path d="M73.9489 304.231L73.9132 306.711L56.9185 306.52L56.9559 303.9H56.9612L56.9773 302.605C58.3035 301.402 60.1431 300.637 62.1948 300.581L66.8508 300.451C69.8954 300.368 72.5799 301.863 73.8704 304.093C73.899 304.137 73.9239 304.185 73.9489 304.231Z" fill="#EAEAEA"/>
<path d="M73.9489 304.095V304.231L73.9132 306.711L56.9185 306.52L56.9559 303.9H56.9612L73.8704 304.093L73.9489 304.095Z" fill="url(#paint39_linear)"/>
<path d="M132.295 292.188H131.089C131.524 290.569 140.877 254.428 129.967 196.139C130.951 197.087 132.005 197.945 133.124 198.652L133.278 198.466C133.531 199.681 133.77 200.9 133.996 202.11C136.711 216.637 137.579 230.809 137.486 243.453C137.463 246.472 137.386 249.405 137.267 252.235C136.267 275.791 132.295 292.188 132.295 292.188V292.188ZM130.823 292.188H118.135H117.807C117.807 292.188 113.071 274.101 107.099 252.235C106.315 249.361 105.509 246.423 104.689 243.453C104.679 243.417 104.67 243.381 104.659 243.345C102.98 237.269 101.638 231.459 100.579 225.986C99.2703 219.306 98.3469 213.098 97.7427 207.449C97.8425 206.213 97.9601 204.964 98.0439 203.699C98.7658 194.282 98.8496 184.528 98.0439 174.628C98.0439 174.628 97.7088 174.54 97.0867 174.407C97.2542 172.539 97.4058 171.554 97.4058 171.554L125.916 173.113C128.656 180.264 130.802 187.522 132.461 194.738C132.723 195.877 132.973 197.012 133.212 198.148C125.73 193.248 121.244 181.578 121.199 181.459L120.709 181.601C120.746 181.701 123.891 189.878 129.324 195.497C140.629 255.174 130.675 291.77 130.574 292.134L130.823 292.188" fill="url(#paint40_linear)"/>
<path d="M68.6669 292.594C66.5795 292.594 64.2034 292.503 62.2818 292.183L62.5492 292.18C62.5349 291.427 61.1374 216.72 67.125 191.573C72.5279 186.979 74.7311 180.922 74.7579 180.847L74.2659 180.713C74.232 180.807 70.8559 190.078 62.207 194.232C63.5706 187.24 65.4958 180.171 68.191 172.961C69.683 171.813 72.4833 171.392 75.7953 171.392C77.2249 171.392 78.7508 171.471 80.3069 171.604C87.1091 172.185 94.4978 173.8 97.0861 174.403C97.7082 174.536 98.0433 174.623 98.0433 174.623C98.849 184.524 98.7652 194.278 98.0433 203.694C97.9595 204.959 97.8419 206.209 97.742 207.444C97.1378 213.815 96.2643 220.008 95.2055 225.966C95.2055 225.982 95.2055 225.982 95.2055 225.982C94.1145 232.084 92.8258 237.93 91.4265 243.448C90.6582 246.478 89.8578 249.411 89.0396 252.231C87.2927 258.25 85.4656 263.762 83.708 268.646C79.6403 279.938 75.9379 287.875 74.4228 290.982C73.9575 291.935 73.6973 292.433 73.6973 292.433C73.6973 292.433 73.6776 292.434 73.6366 292.438C73.2587 292.463 71.1714 292.594 68.6669 292.594V292.594ZM62.0341 292.141C61.084 291.969 60.2586 291.738 59.6526 291.429C59.4351 291.318 59.2461 291.196 59.0911 291.065C61.3175 256.01 56.1142 226.08 62.1089 194.734C62.1232 194.659 62.1374 194.588 62.1517 194.512L62.2747 194.713C63.838 193.981 65.2337 193.086 66.4744 192.105C60.7043 217.624 61.9931 289.915 62.0341 292.141" fill="url(#paint41_linear)"/>
<path d="M62.0349 292.191C62.0349 292.184 62.0349 292.168 62.0349 292.145C62.1167 292.159 62.1985 292.173 62.2821 292.187L62.0349 292.191Z" fill="url(#paint42_linear)"/>
<path d="M62.2821 292.188C62.1983 292.173 62.1163 292.159 62.0343 292.145C61.9933 289.92 60.7046 217.629 66.4746 192.11C66.6975 191.935 66.9131 191.757 67.1253 191.577C61.1377 216.725 62.5352 291.432 62.5495 292.184L62.2821 292.188" fill="url(#paint43_linear)"/>
<path d="M131.074 292.238L130.823 292.185H131.088C131.081 292.215 131.075 292.232 131.074 292.238Z" fill="url(#paint44_linear)"/>
<path d="M131.088 292.188H130.822L130.573 292.134C130.674 291.77 140.628 255.175 129.323 195.497C129.535 195.716 129.749 195.93 129.967 196.139C140.876 254.428 131.523 290.569 131.088 292.188" fill="url(#paint45_linear)"/>
<path d="M133.277 198.461C133.255 198.355 133.232 198.25 133.211 198.143C133.282 198.189 133.353 198.236 133.426 198.281L133.277 198.461Z" fill="#7F7F7F"/>
<path d="M133.124 198.65C132.005 197.943 130.951 197.085 129.967 196.137C129.919 195.877 129.869 195.616 129.819 195.353L129.311 195.428C129.315 195.45 129.32 195.474 129.324 195.495C123.891 189.876 120.746 181.699 120.709 181.599L121.199 181.457C121.244 181.576 125.73 193.246 133.212 198.146C133.233 198.254 133.256 198.358 133.278 198.465L133.124 198.65" fill="url(#paint46_linear)"/>
<path d="M129.967 196.133C129.75 195.924 129.536 195.71 129.324 195.491C129.32 195.469 129.315 195.446 129.311 195.424L129.819 195.349C129.869 195.611 129.919 195.872 129.967 196.133" fill="url(#paint47_linear)"/>
<path d="M62.1511 194.516L62.032 194.319C62.0889 194.292 62.1476 194.264 62.2063 194.236C62.1867 194.33 62.1689 194.422 62.1511 194.516" fill="#858585"/>
<path d="M62.2753 194.713L62.1523 194.511C62.1702 194.418 62.188 194.326 62.2076 194.232C70.8565 190.077 74.2327 180.806 74.2665 180.712L74.7585 180.847C74.7318 180.922 72.5286 186.979 67.1257 191.572C67.131 191.549 67.1364 191.524 67.1417 191.502L66.6372 191.408C66.5838 191.638 66.5303 191.867 66.475 192.105C65.2344 193.085 63.8386 193.98 62.2753 194.713" fill="url(#paint48_linear)"/>
<path d="M66.4749 192.105C66.5301 191.868 66.5836 191.638 66.6371 191.409L67.1416 191.502C67.1362 191.524 67.1309 191.549 67.1255 191.573C66.9134 191.752 66.6977 191.931 66.4749 192.105Z" fill="url(#paint49_linear)"/>
<path d="M127.946 179.186C102.425 188.572 65.6545 179.186 65.6545 179.186C65.0324 159.87 66.0734 145.629 67.6349 135.213C68.2731 130.902 69.0128 127.254 69.7508 124.164C71.2784 117.722 72.84 113.72 73.6795 111.366C77.6083 100.318 84.0397 99.5087 84.0397 99.5087L106.806 99.6258C106.806 99.6258 131.053 102.023 126.569 118.854C132.395 150.543 127.946 179.186 127.946 179.186" fill="url(#paint50_linear)"/>
<path d="M138.734 126.762C141.306 127.935 145.007 128.711 147.96 128.914C175.668 126.092 185.369 103.109 185.543 92.0322L178.133 89.16C178.133 89.16 156.354 108.076 151.142 107.924C148.816 107.855 146.256 108.052 143.736 107.699L138.734 126.762Z" fill="url(#paint51_linear)"/>
<path d="M148.404 107.431C142.532 105.527 133.686 104.976 128.848 102.683C122.176 99.386 114.058 98.163 106.914 99.878C108.185 116.331 123.069 131.22 151.825 129.941C151.825 129.941 150.689 120.421 150.554 117.805C150.406 114.959 148.404 107.431 148.404 107.431Z" fill="url(#paint52_linear)"/>
<path d="M185.331 93.9336C185.331 93.9336 177.319 90.6771 177.429 90.5287C177.54 90.3788 179.463 79.8285 180.515 81.9182C181.568 84.008 181.342 87.7408 184.773 81.7667C188.228 75.7536 193.788 73.1125 193.567 78.946C193.346 84.7795 187.597 90.8036 185.331 93.9336Z" fill="url(#paint53_linear)"/>
<path d="M107.153 100.06C107.153 100.06 104.272 97.1736 104.479 91.5853H93.5036C93.5036 91.5853 93.4341 95.5509 90.623 99.6992C90.623 99.6992 98.443 106.549 107.153 100.06" fill="url(#paint54_linear)"/>
<path d="M108.01 80.1159C108.01 80.1159 109.352 86.96 107.694 88.2689C107.694 88.2689 104.346 88.4719 105.705 81.6903C107.063 74.9087 108.01 80.1159 108.01 80.1159" fill="#29114D"/>
<path d="M110.317 86.7933C110.317 88.3443 108.81 89.6016 106.951 89.6016C105.094 89.6016 103.586 88.3443 103.586 86.7933C103.586 85.2424 105.094 83.9852 106.951 83.9852C108.81 83.9852 110.317 85.2424 110.317 86.7933Z" fill="url(#paint55_linear)"/>
<path d="M90.4552 79.7618C90.4552 79.7618 86.0435 94.7276 97.9348 94.9197C111.01 95.1305 107.295 80.0336 107.295 80.0336C107.295 80.0336 99.7726 70.6046 90.4552 79.7618Z" fill="url(#paint56_linear)"/>
<path d="M90.054 89.1652C90.2162 89.3449 91.7385 84.325 90.8436 80.1892C110.3 80.2407 109.803 83.6987 112.58 73.7871C112.58 73.7871 102.808 70.0979 94.5085 72.0534C86.2821 73.9901 88.1484 80.2142 88.1484 80.2142C88.1484 80.2142 86.2197 84.9091 90.054 89.1652" fill="#29114D"/>
<path d="M89.4785 81.0217C89.4785 81.0217 93.1166 80.8186 95.359 81.4668C95.359 81.4668 91.8546 79.994 90.548 80.2455C89.2414 80.4954 89.4785 81.0217 89.4785 81.0217Z" fill="#29114D"/>
<path d="M93.3165 87.2257C93.3165 88.7064 91.8797 89.9043 90.1061 89.9043C88.3342 89.9043 86.8975 88.7064 86.8975 87.2257C86.8975 85.7466 88.3342 84.5487 90.1061 84.5487C91.8797 84.5487 93.3165 85.7466 93.3165 87.2257Z" fill="url(#paint57_linear)"/>
<path d="M97.89 89.7562L102.922 89.5751C102.922 89.5751 102.715 92.8362 100.234 92.4738C97.7528 92.1115 97.89 89.7562 97.89 89.7562Z" fill="#29114D"/>
<path d="M97.7744 84.8711C97.7744 85.3396 97.3412 85.7207 96.8064 85.7207C96.2716 85.7207 95.8367 85.3396 95.8367 84.8711C95.8367 84.4025 96.2716 84.0214 96.8064 84.0214C97.3412 84.0214 97.7744 84.4025 97.7744 84.8711Z" fill="#29114D"/>
<path d="M104.598 84.9062C104.598 85.3763 104.163 85.7559 103.628 85.7559C103.094 85.7559 102.659 85.3763 102.659 84.9062C102.659 84.4376 103.094 84.058 103.628 84.058C104.163 84.058 104.598 84.4376 104.598 84.9062Z" fill="#29114D"/>
<path d="M132.199 127.912L124.941 110.577L127.778 126.408L132.199 127.912Z" fill="#3D2C63"/>
<path d="M79.742 149.848C79.742 149.848 71.8507 141.507 67.635 135.21C68.2732 130.899 69.0129 127.251 69.7509 124.161C70.8097 123.75 71.6314 123.574 71.6314 123.574L79.742 149.848Z" fill="#3D2C63"/>
<path d="M75.2466 138.621C75.6156 141.14 76.9988 144.247 78.4944 146.486C96.9527 164.813 124.028 158.677 134.507 152.481L132.971 145.51C132.971 145.51 102.815 140.636 99.983 136.8C98.7192 135.086 97.0739 133.356 95.9651 131.342L75.2466 138.621" fill="url(#paint58_linear)"/>
<path d="M98.8814 134.547C97.3145 129.235 92.7833 122.555 92.1719 117.767C91.4535 111.083 87.9686 104.544 82.2841 100.383C67.5888 110.687 62.1288 129.893 79.7386 149.854C79.7386 149.854 88.0132 143.605 90.3875 142.013C92.9687 140.284 98.8814 134.547 98.8814 134.547Z" fill="url(#paint59_linear)"/>
<path d="M97.6567 207.446H104.737L103.423 238.682C103.423 238.682 97.6567 217.111 97.6567 207.446Z" fill="#3D2C63"/>
<path d="M207.027 77.4115L205.271 73.7864L207.028 77.4115H207.027ZM134.8 306.152L130.62 299.179C131.242 298.891 146.194 292.205 174.406 296.008C182.561 297.106 193.009 297.378 196.453 292.422C198.925 288.867 201.363 276.618 170.72 239.748C137.301 199.54 129.677 157.374 148.06 114.418C159.959 86.6187 201.743 70.8188 203.515 70.1597L207.027 77.4115C206.499 77.6098 166.996 92.6115 156.479 117.186C139.224 157.504 146.461 197.178 177.989 235.11C203.21 265.456 211.761 285.544 204.132 296.52C199.297 303.475 188.836 305.923 173.039 303.794C147.72 300.381 134.926 306.095 134.8 306.152" fill="#3D2C63"/>
<path d="M133.133 153C133.133 153 131.612 145.377 131.816 145.37C132.019 145.364 143.006 140.728 141.646 142.678C140.288 144.627 136.662 146.595 144.22 145.655C151.826 144.708 157.473 147.201 151.88 150.371C146.286 153.542 137.361 152.844 133.133 153" fill="url(#paint60_linear)"/>
<path d="M287.751 36.6648L252.599 45.4956C252.192 45.5971 251.768 45.391 251.652 45.0349L249.634 38.8702C249.517 38.514 249.752 38.1423 250.158 38.0408L285.312 29.21C285.718 29.1085 286.141 29.3147 286.259 29.6692L288.276 35.8355C288.392 36.1916 288.157 36.5633 287.751 36.6648Z" fill="#3D2C63"/>
<path d="M297.179 63.4695L262.028 72.3003C261.621 72.4018 261.197 72.1956 261.081 71.8395L259.063 65.6733C258.947 65.3172 259.183 64.947 259.589 64.8439L294.741 56.0147C295.147 55.9116 295.571 56.1178 295.687 56.4739L297.705 62.6402C297.821 62.9963 297.586 63.368 297.179 63.4695" fill="#3D2C63"/>
<path d="M183.291 75.9169C196.282 54.3892 209.27 32.8598 222.259 11.332C234.446 16.9754 246.632 22.6206 258.821 28.2657C245.832 49.7952 232.841 71.3229 219.852 92.8524C207.666 87.2072 195.479 81.5621 183.291 75.9169Z" fill="url(#paint61_linear)"/>
<path d="M219.853 92.8542C232.841 71.3247 245.832 49.797 258.821 28.2676C271.007 33.9127 283.194 39.5578 295.382 45.2029C282.391 66.7324 269.403 88.2601 256.414 109.79C244.227 104.144 232.039 98.4993 219.853 92.8542Z" fill="url(#paint62_linear)"/>
<path d="M256.413 109.788C269.402 88.2583 282.39 66.7306 295.381 45.2012C282.39 66.7306 269.402 88.2583 256.413 109.788Z" fill="#55C855"/>
<path d="M47.0064 164.328H19.875V140.555H47.0064V164.328Z" fill="#DDDDDD"/>
<path d="M47.0064 134.477H19.875V110.704H47.0064V134.477Z" fill="#DDDDDD"/>
<path d="M77.8009 75.3555H56.127V56.3648H77.8009V75.3555Z" fill="#DDDDDD"/>
<path d="M77.8009 51.5059H56.127V32.5151H77.8009V51.5059Z" fill="#DDDDDD"/>
<path d="M635 157.508H613.326V138.517H635V157.508" fill="#DDDDDD"/>
<path d="M635 133.658H613.326V114.668H635V133.658Z" fill="#DDDDDD"/>
<path d="M581.099 95.8828H553.966V72.1112H581.099V95.8828Z" fill="#DDDDDD"/>
<path d="M581.099 66.0293H553.966V42.2578H581.099V66.0293Z" fill="#DDDDDD"/>
<path d="M372.251 210.184L359.233 209.898C359.233 209.898 363.138 193.073 367.695 179.955C372.251 166.837 386.572 162.273 386.572 162.273L372.251 210.184Z" fill="url(#paint63_linear)"/>
<path d="M399.185 147.406L406.099 157.994L396.987 156.14L399.185 147.406Z" fill="#281D49"/>
<path d="M188.796 84.6072L195.522 73.2009L200.08 80.5198L187.168 86.9844L188.796 84.6072Z" fill="#281D49"/>
<path d="M156.191 330.207H151.6V343.929H151.408L141.991 330.207H137.942V352.025H142.555V338.293H142.715L152.207 352.025H156.191V330.207ZM164.584 352.334C167.002 352.334 168.568 351.28 169.367 349.756H169.495V352.025H173.799V340.988C173.799 337.089 170.496 335.449 166.853 335.449C162.932 335.449 160.354 337.324 159.726 340.307L163.923 340.648C164.232 339.561 165.202 338.762 166.832 338.762C168.376 338.762 169.261 339.54 169.261 340.882V340.946C169.261 342.001 168.142 342.139 165.297 342.416C162.059 342.714 159.15 343.801 159.15 347.455C159.15 350.694 161.462 352.334 164.584 352.334ZM163.976 333.648C163.976 332.657 164.467 332.029 165.202 332.029C165.766 332.029 166.192 332.338 166.661 332.689C167.258 333.126 167.94 333.638 169.133 333.627C171.061 333.616 172.574 332.114 172.595 329.419L170.113 329.344C170.102 330.324 169.665 330.985 168.845 330.996C168.312 330.996 167.865 330.687 167.375 330.335C166.736 329.898 166.022 329.387 164.914 329.398C162.975 329.408 161.452 330.91 161.452 333.616L163.976 333.648ZM165.883 349.202C164.488 349.202 163.486 348.552 163.486 347.306C163.486 346.028 164.541 345.399 166.139 345.175C167.13 345.037 168.749 344.802 169.293 344.44V346.177C169.293 347.892 167.876 349.202 165.883 349.202ZM184.713 352.345C189.678 352.345 192.767 348.947 192.767 343.907C192.767 338.836 189.678 335.449 184.713 335.449C179.749 335.449 176.659 338.836 176.659 343.907C176.659 348.947 179.749 352.345 184.713 352.345ZM184.735 348.829C182.444 348.829 181.272 346.731 181.272 343.876C181.272 341.02 182.444 338.911 184.735 338.911C186.983 338.911 188.154 341.02 188.154 343.876C188.154 346.731 186.983 348.829 184.735 348.829ZM210.119 352.345C214.167 352.345 216.895 350.374 217.534 347.338L213.336 347.061C212.878 348.307 211.706 348.957 210.194 348.957C207.924 348.957 206.486 347.455 206.486 345.015V345.005H217.63V343.758C217.63 338.197 214.263 335.449 209.938 335.449C205.123 335.449 202.001 338.868 202.001 343.918C202.001 349.106 205.08 352.345 210.119 352.345ZM206.486 342.192C206.582 340.328 207.999 338.836 210.013 338.836C211.983 338.836 213.347 340.243 213.358 342.192H206.486ZM225.13 342.565C225.14 340.456 226.397 339.22 228.23 339.22C230.052 339.22 231.149 340.413 231.138 342.416V352.025H235.677V341.606C235.677 337.792 233.439 335.449 230.03 335.449C227.601 335.449 225.843 336.642 225.108 338.549H224.917V335.662H220.591V352.025H225.13V342.565ZM246.647 352.345C251.004 352.345 253.742 349.788 253.955 346.028H249.672C249.406 347.775 248.256 348.755 246.7 348.755C244.58 348.755 243.206 346.976 243.206 343.844C243.206 340.754 244.591 338.986 246.7 338.986C248.362 338.986 249.427 340.083 249.672 341.713H253.955C253.763 337.931 250.898 335.449 246.626 335.449C241.661 335.449 238.593 338.89 238.593 343.907C238.593 348.883 241.608 352.345 246.647 352.345ZM264.254 352.345C269.219 352.345 272.308 348.947 272.308 343.907C272.308 338.836 269.219 335.449 264.254 335.449C259.29 335.449 256.2 338.836 256.2 343.907C256.2 348.947 259.29 352.345 264.254 352.345ZM264.276 348.829C261.985 348.829 260.813 346.731 260.813 343.876C260.813 341.02 261.985 338.911 264.276 338.911C266.524 338.911 267.695 341.02 267.695 343.876C267.695 346.731 266.524 348.829 264.276 348.829ZM279.798 342.565C279.808 340.456 281.065 339.22 282.898 339.22C284.72 339.22 285.817 340.413 285.806 342.416V352.025H290.345V341.606C290.345 337.792 288.107 335.449 284.698 335.449C282.269 335.449 280.511 336.642 279.776 338.549H279.585V335.662H275.259V352.025H279.798V342.565ZM302.625 335.662H299.546V331.741H295.008V335.662H292.771V339.071H295.008V347.594C294.987 350.8 297.171 352.388 300.463 352.249C301.634 352.206 302.465 351.972 302.924 351.823L302.21 348.446C301.986 348.488 301.507 348.595 301.081 348.595C300.175 348.595 299.546 348.254 299.546 346.997V339.071H302.625V335.662ZM305.582 352.025H310.12V342.768C310.12 340.754 311.59 339.369 313.593 339.369C314.222 339.369 315.084 339.476 315.511 339.614V335.587C315.106 335.491 314.541 335.427 314.083 335.427C312.251 335.427 310.748 336.493 310.152 338.517H309.981V335.662H305.582V352.025ZM322.054 352.334C324.473 352.334 326.039 351.28 326.838 349.756H326.966V352.025H331.27V340.988C331.27 337.089 327.967 335.449 324.324 335.449C320.403 335.449 317.825 337.324 317.196 340.307L321.394 340.648C321.703 339.561 322.672 338.762 324.302 338.762C325.847 338.762 326.731 339.54 326.731 340.882V340.946C326.731 342.001 325.613 342.139 322.768 342.416C319.53 342.714 316.621 343.801 316.621 347.455C316.621 350.694 318.933 352.334 322.054 352.334ZM323.354 349.202C321.959 349.202 320.957 348.552 320.957 347.306C320.957 346.028 322.012 345.399 323.61 345.175C324.601 345.037 326.22 344.802 326.763 344.44V346.177C326.763 347.892 325.346 349.202 323.354 349.202ZM334.791 352.025H339.329V342.203C339.329 340.392 340.479 339.188 341.992 339.188C343.484 339.188 344.485 340.211 344.485 341.819V352.025H348.885V342.032C348.885 340.339 349.854 339.188 351.506 339.188C352.955 339.188 354.041 340.094 354.041 341.915V352.025H358.569V341.02C358.569 337.473 356.46 335.449 353.413 335.449C351.016 335.449 349.151 336.674 348.48 338.549H348.31C347.788 336.653 346.115 335.449 343.867 335.449C341.662 335.449 339.989 336.621 339.308 338.549H339.116V335.662H334.791V352.025ZM369.547 352.345C374.512 352.345 377.601 348.947 377.601 343.907C377.601 338.836 374.512 335.449 369.547 335.449C364.583 335.449 361.493 338.836 361.493 343.907C361.493 348.947 364.583 352.345 369.547 352.345ZM369.569 348.829C367.278 348.829 366.106 346.731 366.106 343.876C366.106 341.02 367.278 338.911 369.569 338.911C371.816 338.911 372.988 341.02 372.988 343.876C372.988 346.731 371.816 348.829 369.569 348.829ZM394.167 340.328C393.763 337.313 391.334 335.449 387.2 335.449C383.013 335.449 380.254 337.388 380.265 340.541C380.254 342.991 381.799 344.579 384.995 345.218L387.829 345.782C389.256 346.07 389.906 346.592 389.927 347.412C389.906 348.382 388.851 349.074 387.264 349.074C385.645 349.074 384.569 348.382 384.292 347.05L379.828 347.285C380.254 350.417 382.917 352.345 387.253 352.345C391.493 352.345 394.53 350.182 394.54 346.954C394.53 344.589 392.985 343.172 389.81 342.523L386.848 341.926C385.325 341.596 384.76 341.074 384.771 340.285C384.76 339.305 385.868 338.666 387.275 338.666C388.851 338.666 389.789 339.529 390.013 340.584L394.167 340.328ZM408.88 342.565C408.89 340.456 410.147 339.22 411.98 339.22C413.802 339.22 414.899 340.413 414.888 342.416V352.025H419.427V341.606C419.427 337.792 417.189 335.449 413.78 335.449C411.351 335.449 409.593 336.642 408.858 338.549H408.667V335.662H404.341V352.025H408.88V342.565ZM427.67 352.334C430.088 352.334 431.654 351.28 432.453 349.756H432.581V352.025H436.885V340.988C436.885 337.089 433.582 335.449 429.939 335.449C426.018 335.449 423.44 337.324 422.812 340.307L427.009 340.648C427.318 339.561 428.288 338.762 429.918 338.762C431.462 338.762 432.347 339.54 432.347 340.882V340.946C432.347 342.001 431.228 342.139 428.383 342.416C425.145 342.714 422.236 343.801 422.236 347.455C422.236 350.694 424.548 352.334 427.67 352.334ZM428.969 349.202C427.574 349.202 426.572 348.552 426.572 347.306C426.572 346.028 427.627 345.399 429.225 345.175C430.216 345.037 431.835 344.802 432.378 344.44V346.177C432.378 347.892 430.962 349.202 428.969 349.202ZM446.436 352.292C449.078 352.292 450.452 350.768 451.081 349.405H451.272V352.025H455.747V330.207H451.219V338.41H451.081C450.473 337.079 449.163 335.449 446.425 335.449C442.835 335.449 439.799 338.24 439.799 343.865C439.799 349.341 442.707 352.292 446.436 352.292ZM447.874 348.68C445.647 348.68 444.433 346.699 444.433 343.844C444.433 341.01 445.626 339.06 447.874 339.06C450.079 339.06 451.315 340.925 451.315 343.844C451.315 346.763 450.058 348.68 447.874 348.68ZM464.144 352.334C466.563 352.334 468.129 351.28 468.928 349.756H469.055V352.025H473.359V340.988C473.359 337.089 470.057 335.449 466.413 335.449C462.493 335.449 459.915 337.324 459.286 340.307L463.484 340.648C463.793 339.561 464.762 338.762 466.392 338.762C467.937 338.762 468.821 339.54 468.821 340.882V340.946C468.821 342.001 467.703 342.139 464.858 342.416C461.619 342.714 458.711 343.801 458.711 347.455C458.711 350.694 461.023 352.334 464.144 352.334ZM465.444 349.202C464.048 349.202 463.047 348.552 463.047 347.306C463.047 346.028 464.102 345.399 465.7 345.175C466.69 345.037 468.31 344.802 468.853 344.44V346.177C468.853 347.892 467.436 349.202 465.444 349.202ZM479.533 352.302C480.897 352.302 482.079 351.162 482.09 349.746C482.079 348.35 480.897 347.21 479.533 347.21C478.127 347.21 476.966 348.35 476.976 349.746C476.966 351.162 478.127 352.302 479.533 352.302ZM488.469 352.302C489.832 352.302 491.015 351.162 491.025 349.746C491.015 348.35 489.832 347.21 488.469 347.21C487.062 347.21 485.901 348.35 485.912 349.746C485.901 351.162 487.062 352.302 488.469 352.302ZM497.404 352.302C498.768 352.302 499.95 351.162 499.961 349.746C499.95 348.35 498.768 347.21 497.404 347.21C495.998 347.21 494.837 348.35 494.847 349.746C494.837 351.162 495.998 352.302 497.404 352.302ZM195.321 366.207H190.197L197.729 388.025H203.674L211.195 366.207H206.081L200.797 382.784H200.595L195.321 366.207ZM219.318 388.345C223.367 388.345 226.094 386.374 226.733 383.338L222.536 383.061C222.078 384.307 220.906 384.957 219.393 384.957C217.124 384.957 215.685 383.455 215.685 381.015V381.005H226.829V379.758C226.829 374.197 223.462 371.449 219.137 371.449C214.322 371.449 211.2 374.868 211.2 379.918C211.2 385.106 214.279 388.345 219.318 388.345ZM215.685 378.192C215.781 376.328 217.198 374.836 219.212 374.836C221.183 374.836 222.546 376.243 222.557 378.192H215.685ZM229.791 388.025H234.329V378.768C234.329 376.754 235.799 375.369 237.802 375.369C238.43 375.369 239.293 375.476 239.72 375.614V371.587C239.315 371.491 238.75 371.427 238.292 371.427C236.46 371.427 234.957 372.493 234.361 374.517H234.19V371.662H229.791V388.025ZM242.066 388.025H246.604V371.662H242.066V388.025ZM244.346 369.552C245.699 369.552 246.807 368.519 246.807 367.251C246.807 365.994 245.699 364.961 244.346 364.961C243.003 364.961 241.896 365.994 241.896 367.251C241.896 368.519 243.003 369.552 244.346 369.552ZM259.04 371.662H255.79V370.564C255.79 369.456 256.238 368.807 257.569 368.807C258.113 368.807 258.667 368.924 259.029 369.041L259.828 365.632C259.263 365.461 258.017 365.184 256.621 365.184C253.542 365.184 251.252 366.921 251.252 370.479V371.662H248.94V375.071H251.252V388.025H255.79V375.071H259.04V371.662ZM261.812 388.025H266.35V371.662H261.812V388.025ZM264.092 369.552C265.445 369.552 266.553 368.519 266.553 367.251C266.553 365.994 265.445 364.961 264.092 364.961C262.75 364.961 261.642 365.994 261.642 367.251C261.642 368.519 262.75 369.552 264.092 369.552ZM285.337 394.162V371.662H280.863V374.41H280.661C280.053 373.079 278.743 371.449 276.005 371.449C272.415 371.449 269.379 374.24 269.379 379.865C269.379 385.341 272.287 388.292 276.016 388.292C278.658 388.292 280.032 386.768 280.661 385.405H280.799V394.162H285.337ZM280.895 379.844C280.895 382.763 279.638 384.68 277.454 384.68C275.227 384.68 274.013 382.699 274.013 379.844C274.013 377.01 275.206 375.06 277.454 375.06C279.659 375.06 280.895 376.925 280.895 379.844ZM299.464 381.058C299.475 383.253 297.972 384.403 296.342 384.403C294.627 384.403 293.519 383.199 293.509 381.271V371.662H288.97V382.081C288.981 385.905 291.218 388.238 294.51 388.238C296.971 388.238 298.739 386.971 299.475 385.053H299.645V388.025H304.002V371.662H299.464V381.058ZM315.09 388.345C319.138 388.345 321.865 386.374 322.505 383.338L318.307 383.061C317.849 384.307 316.677 384.957 315.164 384.957C312.895 384.957 311.457 383.455 311.457 381.015V381.005H322.6V379.758C322.6 374.197 319.234 371.449 314.909 371.449C310.093 371.449 306.972 374.868 306.972 379.918C306.972 385.106 310.051 388.345 315.09 388.345ZM311.457 378.192C311.553 376.328 312.97 374.836 314.983 374.836C316.954 374.836 318.318 376.243 318.328 378.192H311.457ZM337.172 388.334C339.59 388.334 341.156 387.28 341.955 385.756H342.083V388.025H346.387V376.988C346.387 373.089 343.084 371.449 339.441 371.449C335.52 371.449 332.942 373.324 332.314 376.307L336.511 376.648C336.82 375.561 337.79 374.762 339.419 374.762C340.964 374.762 341.848 375.54 341.848 376.882V376.946C341.848 378.001 340.73 378.139 337.885 378.416C334.647 378.714 331.738 379.801 331.738 383.455C331.738 386.694 334.05 388.334 337.172 388.334ZM338.471 385.202C337.076 385.202 336.074 384.552 336.074 383.306C336.074 382.028 337.129 381.399 338.727 381.175C339.718 381.037 341.337 380.802 341.88 380.44V382.177C341.88 383.892 340.464 385.202 338.471 385.202ZM356.936 388.025H361.411V385.405H361.613C362.242 386.768 363.616 388.292 366.258 388.292C369.987 388.292 372.895 385.341 372.895 379.865C372.895 374.24 369.859 371.449 366.269 371.449C363.531 371.449 362.22 373.079 361.613 374.41H361.475V366.207H356.936V388.025ZM361.379 379.844C361.379 376.925 362.615 375.06 364.82 375.06C367.068 375.06 368.261 377.01 368.261 379.844C368.261 382.699 367.046 384.68 364.82 384.68C362.636 384.68 361.379 382.763 361.379 379.844ZM386.417 381.058C386.428 383.253 384.926 384.403 383.296 384.403C381.58 384.403 380.472 383.199 380.462 381.271V371.662H375.923V382.081C375.934 385.905 378.171 388.238 381.463 388.238C383.924 388.238 385.693 386.971 386.428 385.053H386.598V388.025H390.955V371.662H386.417V381.058ZM408.201 376.328C407.796 373.313 405.367 371.449 401.233 371.449C397.046 371.449 394.287 373.388 394.298 376.541C394.287 378.991 395.832 380.579 399.028 381.218L401.862 381.782C403.289 382.07 403.939 382.592 403.96 383.412C403.939 384.382 402.884 385.074 401.297 385.074C399.678 385.074 398.602 384.382 398.325 383.05L393.861 383.285C394.287 386.417 396.951 388.345 401.286 388.345C405.527 388.345 408.563 386.182 408.573 382.954C408.563 380.589 407.018 379.172 403.843 378.523L400.882 377.926C399.358 377.596 398.794 377.074 398.804 376.285C398.794 375.305 399.902 374.666 401.308 374.666C402.884 374.666 403.822 375.529 404.046 376.584L408.201 376.328ZM418.825 388.345C423.182 388.345 425.92 385.788 426.133 382.028H421.85C421.584 383.775 420.433 384.755 418.878 384.755C416.758 384.755 415.384 382.976 415.384 379.844C415.384 376.754 416.769 374.986 418.878 374.986C420.54 374.986 421.605 376.083 421.85 377.713H426.133C425.941 373.931 423.075 371.449 418.803 371.449C413.839 371.449 410.771 374.89 410.771 379.907C410.771 384.883 413.786 388.345 418.825 388.345ZM433.705 388.334C436.123 388.334 437.689 387.28 438.488 385.756H438.616V388.025H442.92V376.988C442.92 373.089 439.617 371.449 435.974 371.449C432.054 371.449 429.475 373.324 428.847 376.307L433.044 376.648C433.353 375.561 434.323 374.762 435.953 374.762C437.497 374.762 438.382 375.54 438.382 376.882V376.946C438.382 378.001 437.263 378.139 434.419 378.416C431.18 378.714 428.272 379.801 428.272 383.455C428.272 386.694 430.583 388.334 433.705 388.334ZM435.005 385.202C433.609 385.202 432.608 384.552 432.608 383.306C432.608 382.028 433.662 381.399 435.26 381.175C436.251 381.037 437.87 380.802 438.414 380.44V382.177C438.414 383.892 436.997 385.202 435.005 385.202ZM451.864 366.207H447.123L447.549 381.484H451.448L451.864 366.207ZM449.498 388.302C450.862 388.302 452.045 387.162 452.055 385.746C452.045 384.35 450.862 383.21 449.498 383.21C448.092 383.21 446.931 384.35 446.942 385.746C446.931 387.162 448.092 388.302 449.498 388.302Z" fill="#515151"/>
<defs>
<linearGradient id="paint0_linear" x1="483.941" y1="287.697" x2="479.257" y2="309.948" gradientUnits="userSpaceOnUse">
<stop stop-color="#FBBB8F"/>
<stop offset="1" stop-color="#FF873E"/>
</linearGradient>
<linearGradient id="paint1_linear" x1="479.062" y1="295.532" x2="473.967" y2="305.56" gradientUnits="userSpaceOnUse">
<stop stop-color="#FF816A"/>
<stop offset="1" stop-color="#FE4C6A"/>
</linearGradient>
<linearGradient id="paint2_linear" x1="489.388" y1="342.398" x2="494.69" y2="302.185" gradientUnits="userSpaceOnUse">
<stop stop-color="#55C855"/>
</linearGradient>
<linearGradient id="paint3_linear" x1="576.177" y1="284.661" x2="586.322" y2="305.566" gradientUnits="userSpaceOnUse">
<stop stop-color="#FBBB8F"/>
<stop offset="1" stop-color="#FF873E"/>
</linearGradient>
<linearGradient id="paint4_linear" x1="580.161" y1="293.424" x2="579.886" y2="304.335" gradientUnits="userSpaceOnUse">
<stop stop-color="#FF816A"/>
<stop offset="1" stop-color="#FE4C6A"/>
</linearGradient>
<linearGradient id="paint5_linear" x1="560.865" y1="288.36" x2="557.2" y2="249.415" gradientUnits="userSpaceOnUse">
<stop offset="0.739583" stop-color="#55C855"/>
</linearGradient>
<linearGradient id="paint6_linear" x1="459.278" y1="92.3472" x2="471.811" y2="151.03" gradientUnits="userSpaceOnUse">
<stop stop-color="#FBBB8F"/>
<stop offset="1" stop-color="#FF873E"/>
</linearGradient>
<linearGradient id="paint7_linear" x1="474.765" y1="112.357" x2="455.018" y2="138.02" gradientUnits="userSpaceOnUse">
<stop stop-color="#FBBB8F"/>
<stop offset="1" stop-color="#FF873E"/>
</linearGradient>
<linearGradient id="paint8_linear" x1="500.913" y1="121.832" x2="444.645" y2="154.176" gradientUnits="userSpaceOnUse">
<stop stop-color="#FF816A"/>
<stop offset="1" stop-color="#FE4C6A"/>
</linearGradient>
<linearGradient id="paint9_linear" x1="529.792" y1="151.713" x2="532.337" y2="251.93" gradientUnits="userSpaceOnUse">
<stop stop-color="#FF816A"/>
<stop offset="0.677083" stop-color="#EB000E"/>
</linearGradient>
<linearGradient id="paint10_linear" x1="530.807" y1="105.671" x2="531.369" y2="97.326" gradientUnits="userSpaceOnUse">
<stop stop-color="#FBBB8F"/>
<stop offset="1" stop-color="#FF873E"/>
</linearGradient>
<linearGradient id="paint11_linear" x1="518.276" y1="95.6074" x2="538.273" y2="79.0223" gradientUnits="userSpaceOnUse">
<stop stop-color="#FBBB8F"/>
<stop offset="1" stop-color="#FF873E"/>
</linearGradient>
<linearGradient id="paint12_linear" x1="531.689" y1="99.3031" x2="529.72" y2="70.8944" gradientUnits="userSpaceOnUse">
<stop stop-color="#FBBB8F"/>
<stop offset="1" stop-color="#FF873E"/>
</linearGradient>
<linearGradient id="paint13_linear" x1="531.754" y1="93.9252" x2="545.972" y2="89.8493" gradientUnits="userSpaceOnUse">
<stop stop-color="#FBBB8F"/>
<stop offset="1" stop-color="#FF873E"/>
</linearGradient>
<linearGradient id="paint14_linear" x1="572.083" y1="156.642" x2="617.679" y2="133.327" gradientUnits="userSpaceOnUse">
<stop stop-color="#FBBB8F"/>
<stop offset="1" stop-color="#FF873E"/>
</linearGradient>
<linearGradient id="paint15_linear" x1="585.416" y1="145.454" x2="621.988" y2="190.578" gradientUnits="userSpaceOnUse">
<stop stop-color="#FF816A"/>
<stop offset="1" stop-color="#FE4C6A"/>
</linearGradient>
<linearGradient id="paint16_linear" x1="576.196" y1="284.666" x2="586.34" y2="305.54" gradientUnits="userSpaceOnUse">
<stop stop-color="#83634D"/>
<stop offset="1" stop-color="#854925"/>
</linearGradient>
<linearGradient id="paint17_linear" x1="560.865" y1="288.365" x2="557.2" y2="249.42" gradientUnits="userSpaceOnUse">
<stop stop-color="#554284"/>
<stop offset="1" stop-color="#542985"/>
</linearGradient>
<linearGradient id="paint18_linear" x1="560.865" y1="288.363" x2="557.2" y2="249.419" gradientUnits="userSpaceOnUse">
<stop stop-color="#554284"/>
<stop offset="1" stop-color="#542985"/>
</linearGradient>
<linearGradient id="paint19_linear" x1="529.793" y1="151.71" x2="532.34" y2="251.935" gradientUnits="userSpaceOnUse">
<stop stop-color="#85463B"/>
<stop offset="1" stop-color="#852C3B"/>
</linearGradient>
<linearGradient id="paint20_linear" x1="560.895" y1="288.74" x2="557.207" y2="249.627" gradientUnits="userSpaceOnUse">
<stop stop-color="#302748"/>
<stop offset="1" stop-color="#301A48"/>
</linearGradient>
<linearGradient id="paint21_linear" x1="489.389" y1="342.392" x2="494.691" y2="302.179" gradientUnits="userSpaceOnUse">
<stop stop-color="#554284"/>
<stop offset="1" stop-color="#542985"/>
</linearGradient>
<linearGradient id="paint22_linear" x1="529.747" y1="151.752" x2="532.292" y2="251.864" gradientUnits="userSpaceOnUse">
<stop stop-color="#85463B"/>
<stop offset="1" stop-color="#852C3B"/>
</linearGradient>
<linearGradient id="paint23_linear" x1="483.926" y1="287.728" x2="479.282" y2="309.863" gradientUnits="userSpaceOnUse">
<stop stop-color="#83634D"/>
<stop offset="1" stop-color="#854925"/>
</linearGradient>
<linearGradient id="paint24_linear" x1="489.389" y1="342.396" x2="494.691" y2="302.183" gradientUnits="userSpaceOnUse">
<stop stop-color="#554284"/>
<stop offset="1" stop-color="#542985"/>
</linearGradient>
<linearGradient id="paint25_linear" x1="489.39" y1="342.415" x2="494.693" y2="302.197" gradientUnits="userSpaceOnUse">
<stop stop-color="#302748"/>
<stop offset="1" stop-color="#301A48"/>
</linearGradient>
<linearGradient id="paint26_linear" x1="604.933" y1="198.184" x2="585.974" y2="133.442" gradientUnits="userSpaceOnUse">
<stop stop-color="#FBBB8F"/>
<stop offset="1" stop-color="#FF873E"/>
</linearGradient>
<linearGradient id="paint27_linear" x1="428.584" y1="179.146" x2="357.505" y2="229.081" gradientUnits="userSpaceOnUse">
<stop stop-color="#55C855"/>
<stop offset="1" stop-color="#026AA7"/>
</linearGradient>
<linearGradient id="paint28_linear" x1="363.358" y1="224.399" x2="376.072" y2="221.794" gradientUnits="userSpaceOnUse">
<stop stop-color="#0276B3"/>
<stop offset="1" stop-color="#026AA7"/>
</linearGradient>
<linearGradient id="paint29_linear" x1="386.762" y1="230.686" x2="399.477" y2="228.081" gradientUnits="userSpaceOnUse">
<stop stop-color="#0276B3"/>
<stop offset="1" stop-color="#026AA7"/>
</linearGradient>
<linearGradient id="paint30_linear" x1="124.632" y1="300.663" x2="125.276" y2="275.649" gradientUnits="userSpaceOnUse">
<stop stop-color="#FBBB8F"/>
<stop offset="1" stop-color="#FF873E"/>
</linearGradient>
<linearGradient id="paint31_linear" x1="116.293" y1="301.544" x2="133.572" y2="300.923" gradientUnits="userSpaceOnUse">
<stop stop-color="#FF816A"/>
<stop offset="1" stop-color="#FE4C6A"/>
</linearGradient>
<linearGradient id="paint32_linear" x1="121.481" y1="297.226" x2="128.989" y2="297.337" gradientUnits="userSpaceOnUse">
<stop stop-color="#473068"/>
<stop offset="1" stop-color="#000028"/>
</linearGradient>
<linearGradient id="paint33_linear" x1="121.45" y1="299.185" x2="128.959" y2="299.296" gradientUnits="userSpaceOnUse">
<stop stop-color="#473068"/>
<stop offset="1" stop-color="#000028"/>
</linearGradient>
<linearGradient id="paint34_linear" x1="124.724" y1="307.422" x2="125.237" y2="302.06" gradientUnits="userSpaceOnUse">
<stop stop-color="#473068"/>
<stop offset="1" stop-color="#000028"/>
</linearGradient>
<linearGradient id="paint35_linear" x1="64.9007" y1="300.595" x2="68.2825" y2="275.736" gradientUnits="userSpaceOnUse">
<stop stop-color="#FBBB8F"/>
<stop offset="1" stop-color="#FF873E"/>
</linearGradient>
<linearGradient id="paint36_linear" x1="56.7402" y1="301.544" x2="74.0191" y2="300.923" gradientUnits="userSpaceOnUse">
<stop stop-color="#FF816A"/>
<stop offset="1" stop-color="#FE4C6A"/>
</linearGradient>
<linearGradient id="paint37_linear" x1="61.9259" y1="297.226" x2="69.4342" y2="297.337" gradientUnits="userSpaceOnUse">
<stop stop-color="#473068"/>
<stop offset="1" stop-color="#000028"/>
</linearGradient>
<linearGradient id="paint38_linear" x1="61.8969" y1="299.185" x2="69.405" y2="299.296" gradientUnits="userSpaceOnUse">
<stop stop-color="#473068"/>
<stop offset="1" stop-color="#000028"/>
</linearGradient>
<linearGradient id="paint39_linear" x1="65.1698" y1="307.422" x2="65.6827" y2="302.06" gradientUnits="userSpaceOnUse">
<stop stop-color="#473068"/>
<stop offset="1" stop-color="#000028"/>
</linearGradient>
<linearGradient id="paint40_linear" x1="117.026" y1="288.581" x2="117.026" y2="202.608" gradientUnits="userSpaceOnUse">
<stop stop-color="#55C855"/>
</linearGradient>
<linearGradient id="paint41_linear" x1="78.8542" y1="285.971" x2="78.8542" y2="200.308" gradientUnits="userSpaceOnUse">
<stop stop-color="#55C855"/>
</linearGradient>
<linearGradient id="paint42_linear" x1="64.8949" y1="300.572" x2="68.2652" y2="275.782" gradientUnits="userSpaceOnUse">
<stop stop-color="#83634D"/>
<stop offset="1" stop-color="#854925"/>
</linearGradient>
<linearGradient id="paint43_linear" x1="78.8544" y1="285.976" x2="78.8544" y2="200.312" gradientUnits="userSpaceOnUse">
<stop stop-color="#85463B"/>
<stop offset="1" stop-color="#852C3B"/>
</linearGradient>
<linearGradient id="paint44_linear" x1="124.647" y1="300.661" x2="125.293" y2="275.657" gradientUnits="userSpaceOnUse">
<stop stop-color="#83634D"/>
<stop offset="1" stop-color="#854925"/>
</linearGradient>
<linearGradient id="paint45_linear" x1="117.025" y1="288.581" x2="117.025" y2="202.608" gradientUnits="userSpaceOnUse">
<stop stop-color="#85463B"/>
<stop offset="1" stop-color="#852C3B"/>
</linearGradient>
<linearGradient id="paint46_linear" x1="117.026" y1="288.58" x2="117.026" y2="202.606" gradientUnits="userSpaceOnUse">
<stop stop-color="#85463B"/>
<stop offset="1" stop-color="#852C3B"/>
</linearGradient>
<linearGradient id="paint47_linear" x1="117.026" y1="288.568" x2="117.026" y2="202.601" gradientUnits="userSpaceOnUse">
<stop stop-color="#482923"/>
<stop offset="1" stop-color="#481C23"/>
</linearGradient>
<linearGradient id="paint48_linear" x1="78.8548" y1="285.971" x2="78.8548" y2="200.307" gradientUnits="userSpaceOnUse">
<stop stop-color="#85463B"/>
<stop offset="1" stop-color="#852C3B"/>
</linearGradient>
<linearGradient id="paint49_linear" x1="78.8558" y1="285.989" x2="78.8558" y2="200.309" gradientUnits="userSpaceOnUse">
<stop stop-color="#482923"/>
<stop offset="1" stop-color="#481C23"/>
</linearGradient>
<linearGradient id="paint50_linear" x1="98.9471" y1="117.052" x2="96.4378" y2="215.853" gradientUnits="userSpaceOnUse">
<stop stop-color="#0276B3"/>
<stop offset="1" stop-color="#026AA7"/>
</linearGradient>
<linearGradient id="paint51_linear" x1="161.18" y1="89.5958" x2="164.057" y2="167.065" gradientUnits="userSpaceOnUse">
<stop stop-color="#FBBB8F"/>
<stop offset="1" stop-color="#FF873E"/>
</linearGradient>
<linearGradient id="paint52_linear" x1="131.122" y1="115.176" x2="155.189" y2="206.272" gradientUnits="userSpaceOnUse">
<stop stop-color="#0276B3"/>
<stop offset="1" stop-color="#026AA7"/>
</linearGradient>
<linearGradient id="paint53_linear" x1="185.135" y1="85.1481" x2="146.016" y2="140.653" gradientUnits="userSpaceOnUse">
<stop stop-color="#FBBB8F"/>
<stop offset="1" stop-color="#FF873E"/>
</linearGradient>
<linearGradient id="paint54_linear" x1="98.9956" y1="101.102" x2="98.4332" y2="92.7564" gradientUnits="userSpaceOnUse">
<stop stop-color="#FBBB8F"/>
<stop offset="1" stop-color="#FF873E"/>
</linearGradient>
<linearGradient id="paint55_linear" x1="106.354" y1="92.7565" x2="107.753" y2="74.58" gradientUnits="userSpaceOnUse">
<stop stop-color="#FBBB8F"/>
<stop offset="1" stop-color="#FF873E"/>
</linearGradient>
<linearGradient id="paint56_linear" x1="98.0168" y1="92.0318" x2="99.4157" y2="73.8553" gradientUnits="userSpaceOnUse">
<stop stop-color="#FBBB8F"/>
<stop offset="1" stop-color="#FF873E"/>
</linearGradient>
<linearGradient id="paint57_linear" x1="89.6943" y1="91.3287" x2="91.0932" y2="73.1523" gradientUnits="userSpaceOnUse">
<stop stop-color="#FBBB8F"/>
<stop offset="1" stop-color="#FF873E"/>
</linearGradient>
<linearGradient id="paint58_linear" x1="122.889" y1="133.562" x2="59.4738" y2="188.547" gradientUnits="userSpaceOnUse">
<stop stop-color="#FBBB8F"/>
<stop offset="1" stop-color="#FF873E"/>
</linearGradient>
<linearGradient id="paint59_linear" x1="87.1896" y1="104.225" x2="78.4593" y2="186.151" gradientUnits="userSpaceOnUse">
<stop stop-color="#0276B3"/>
<stop offset="1" stop-color="#026AA7"/>
</linearGradient>
<linearGradient id="paint60_linear" x1="141.256" y1="147.844" x2="67.667" y2="141.952" gradientUnits="userSpaceOnUse">
<stop stop-color="#FBBB8F"/>
<stop offset="1" stop-color="#FF873E"/>
</linearGradient>
<linearGradient id="paint61_linear" x1="221.056" y1="11.332" x2="221.056" y2="92.8524" gradientUnits="userSpaceOnUse">
<stop stop-color="#147C91"/>
<stop offset="1" stop-color="#55C855"/>
</linearGradient>
<linearGradient id="paint62_linear" x1="257.617" y1="28.2676" x2="257.617" y2="109.79" gradientUnits="userSpaceOnUse">
<stop stop-color="#056EA5"/>
<stop offset="1" stop-color="#48AA48"/>
</linearGradient>
<linearGradient id="paint63_linear" x1="428.585" y1="179.151" x2="357.506" y2="229.086" gradientUnits="userSpaceOnUse">
<stop stop-color="#489CC8"/>
<stop offset="1" stop-color="#4893C0"/>
</linearGradient>
</defs>
</svg>
