<svg width="150" height="200" viewBox="0 0 150 200" fill="none" xmlns="http://www.w3.org/2000/svg">
<rect x="1.5" y="1.5" width="147" height="197" fill="white" stroke="#79D379" stroke-width="3"/>
<path d="M60.7202 45.7555C48.8848 47.7625 38.0543 54.1553 35.542 60.6968C33.4206 66.1232 37.5518 70.8063 47.4891 74.077C51.7878 75.5637 53.7976 75.7124 65.7447 75.7867C76.7427 75.7867 79.9249 75.5637 83.442 74.4487C88.5781 72.8133 91.3695 70.5833 91.5928 67.8329C91.8161 65.0825 89.8063 63.4471 84.2236 61.9604L79.7574 60.7711L83.3862 60.3251C90.5879 59.4331 98.5154 62.0348 100.302 65.9002C101.698 68.9479 98.5712 73.4823 92.9327 76.3814C89.1364 78.3884 81.488 79.8751 72.4998 80.3955L64.1815 80.8415L68.3127 82.9972C72.3882 85.1529 72.6115 85.2272 80.2598 84.7812C99.4086 83.7405 113.086 76.753 114.929 66.9409C115.822 62.1834 108.229 56.8313 97.5663 54.527C91.9836 53.3376 75.4028 53.2633 70.2109 54.4526C64.349 55.7163 60.4411 57.5004 58.9896 59.4331C56.589 62.6295 59.0454 65.9745 62.2276 63.8188C66.1355 61.1428 72.2765 62.9268 70.7133 66.3462C68.7035 70.5833 56.1424 70.5089 51.397 66.1975C45.9818 61.3658 51.8436 54.1553 63.5674 51.1819C66.303 50.5129 72.444 49.7695 77.1893 49.4722L85.8426 49.0262L81.7672 46.9448C78.0826 45.1608 77.0218 44.9378 71.1599 45.0121C67.587 45.0865 62.8975 45.4581 60.7202 45.7555Z" fill="#55C855" fill-opacity="0.79"/>
<path d="M47.9698 114.768V126H45.2338V119.264L42.7218 126H40.5138L37.9858 119.248V126H35.2498V114.768H38.4818L41.6338 122.544L44.7538 114.768H47.9698ZM52.8813 117.072V126H50.1453V117.072H52.8813ZM53.3773 114.848L49.5213 116.464V114.576L53.3773 112.72V114.848ZM54.5339 121.52C54.5339 120.603 54.7046 119.797 55.0459 119.104C55.3979 118.411 55.8726 117.877 56.4699 117.504C57.0673 117.131 57.7339 116.944 58.4699 116.944C59.0566 116.944 59.5899 117.067 60.0699 117.312C60.5606 117.557 60.9446 117.888 61.2219 118.304V114.16H63.9579V126H61.2219V124.72C60.9659 125.147 60.5979 125.488 60.1179 125.744C59.6486 126 59.0993 126.128 58.4699 126.128C57.7339 126.128 57.0673 125.941 56.4699 125.568C55.8726 125.184 55.3979 124.645 55.0459 123.952C54.7046 123.248 54.5339 122.437 54.5339 121.52ZM61.2219 121.536C61.2219 120.853 61.0299 120.315 60.6459 119.92C60.2726 119.525 59.8139 119.328 59.2699 119.328C58.7259 119.328 58.2619 119.525 57.8779 119.92C57.5046 120.304 57.3179 120.837 57.3179 121.52C57.3179 122.203 57.5046 122.747 57.8779 123.152C58.2619 123.547 58.7259 123.744 59.2699 123.744C59.8139 123.744 60.2726 123.547 60.6459 123.152C61.0299 122.757 61.2219 122.219 61.2219 121.536ZM67.3133 116.144C66.8333 116.144 66.4386 116.005 66.1293 115.728C65.8306 115.44 65.6813 115.088 65.6813 114.672C65.6813 114.245 65.8306 113.893 66.1293 113.616C66.4386 113.328 66.8333 113.184 67.3133 113.184C67.7826 113.184 68.1666 113.328 68.4653 113.616C68.7746 113.893 68.9293 114.245 68.9293 114.672C68.9293 115.088 68.7746 115.44 68.4653 115.728C68.1666 116.005 67.7826 116.144 67.3133 116.144ZM68.6733 117.072V126H65.9373V117.072H68.6733ZM70.1121 121.52C70.1121 120.603 70.2827 119.797 70.6241 119.104C70.9761 118.411 71.4507 117.877 72.0481 117.504C72.6454 117.131 73.3121 116.944 74.0481 116.944C74.6774 116.944 75.2267 117.072 75.6961 117.328C76.1761 117.584 76.5441 117.92 76.8001 118.336V117.072H79.5361V126H76.8001V124.736C76.5334 125.152 76.1601 125.488 75.6801 125.744C75.2107 126 74.6614 126.128 74.0321 126.128C73.3067 126.128 72.6454 125.941 72.0481 125.568C71.4507 125.184 70.9761 124.645 70.6241 123.952C70.2827 123.248 70.1121 122.437 70.1121 121.52ZM76.8001 121.536C76.8001 120.853 76.6081 120.315 76.2241 119.92C75.8507 119.525 75.3921 119.328 74.8481 119.328C74.3041 119.328 73.8401 119.525 73.4561 119.92C73.0827 120.304 72.8961 120.837 72.8961 121.52C72.8961 122.203 73.0827 122.747 73.4561 123.152C73.8401 123.547 74.3041 123.744 74.8481 123.744C75.3921 123.744 75.8507 123.547 76.2241 123.152C76.6081 122.757 76.8001 122.219 76.8001 121.536ZM90.3461 116.976C91.3914 116.976 92.2234 117.317 92.8421 118C93.4714 118.672 93.7861 119.6 93.7861 120.784V126H91.0661V121.152C91.0661 120.555 90.9114 120.091 90.6021 119.76C90.2927 119.429 89.8767 119.264 89.3541 119.264C88.8314 119.264 88.4154 119.429 88.1061 119.76C87.7967 120.091 87.6421 120.555 87.6421 121.152V126H84.9061V117.072H87.6421V118.256C87.9194 117.861 88.2927 117.552 88.7621 117.328C89.2314 117.093 89.7594 116.976 90.3461 116.976ZM95.1433 121.52C95.1433 120.603 95.314 119.797 95.6553 119.104C96.0073 118.411 96.482 117.877 97.0793 117.504C97.6766 117.131 98.3433 116.944 99.0793 116.944C99.7086 116.944 100.258 117.072 100.727 117.328C101.207 117.584 101.575 117.92 101.831 118.336V117.072H104.567V126H101.831V124.736C101.565 125.152 101.191 125.488 100.711 125.744C100.242 126 99.6926 126.128 99.0633 126.128C98.338 126.128 97.6766 125.941 97.0793 125.568C96.482 125.184 96.0073 124.645 95.6553 123.952C95.314 123.248 95.1433 122.437 95.1433 121.52ZM101.831 121.536C101.831 120.853 101.639 120.315 101.255 119.92C100.882 119.525 100.423 119.328 99.8793 119.328C99.3353 119.328 98.8713 119.525 98.4873 119.92C98.114 120.304 97.9273 120.837 97.9273 121.52C97.9273 122.203 98.114 122.747 98.4873 123.152C98.8713 123.547 99.3353 123.744 99.8793 123.744C100.423 123.744 100.882 123.547 101.255 123.152C101.639 122.757 101.831 122.219 101.831 121.536ZM96.9833 116.32C97.2393 114.741 97.9753 113.952 99.1913 113.952C99.426 113.952 99.6286 113.989 99.7993 114.064C99.9806 114.128 100.199 114.229 100.455 114.368C100.647 114.475 100.802 114.555 100.919 114.608C101.037 114.651 101.159 114.672 101.287 114.672C101.682 114.672 101.911 114.432 101.975 113.952H103.383C103.127 115.531 102.391 116.32 101.175 116.32C100.941 116.32 100.733 116.288 100.551 116.224C100.381 116.149 100.167 116.043 99.9113 115.904C99.7193 115.797 99.5646 115.723 99.4473 115.68C99.33 115.627 99.2073 115.6 99.0793 115.6C98.6846 115.6 98.45 115.84 98.3753 116.32H96.9833ZM110.611 126.128C109.736 126.128 108.947 125.941 108.243 125.568C107.549 125.195 107 124.661 106.595 123.968C106.2 123.275 106.003 122.464 106.003 121.536C106.003 120.619 106.205 119.813 106.611 119.12C107.016 118.416 107.571 117.877 108.275 117.504C108.979 117.131 109.768 116.944 110.643 116.944C111.517 116.944 112.307 117.131 113.011 117.504C113.715 117.877 114.269 118.416 114.675 119.12C115.08 119.813 115.283 120.619 115.283 121.536C115.283 122.453 115.075 123.264 114.659 123.968C114.253 124.661 113.693 125.195 112.979 125.568C112.275 125.941 111.485 126.128 110.611 126.128ZM110.611 123.76C111.133 123.76 111.576 123.568 111.939 123.184C112.312 122.8 112.499 122.251 112.499 121.536C112.499 120.821 112.317 120.272 111.955 119.888C111.603 119.504 111.165 119.312 110.643 119.312C110.109 119.312 109.667 119.504 109.315 119.888C108.963 120.261 108.787 120.811 108.787 121.536C108.787 122.251 108.957 122.8 109.299 123.184C109.651 123.568 110.088 123.76 110.611 123.76ZM32.6658 145.392C32.6658 145.648 32.6498 145.915 32.6178 146.192H26.4258C26.4685 146.747 26.6445 147.173 26.9538 147.472C27.2738 147.76 27.6631 147.904 28.1218 147.904C28.8045 147.904 29.2791 147.616 29.5458 147.04H32.4578C32.3085 147.627 32.0365 148.155 31.6418 148.624C31.2578 149.093 30.7725 149.461 30.1858 149.728C29.5991 149.995 28.9431 150.128 28.2178 150.128C27.3431 150.128 26.5645 149.941 25.8818 149.568C25.1991 149.195 24.6658 148.661 24.2818 147.968C23.8978 147.275 23.7058 146.464 23.7058 145.536C23.7058 144.608 23.8925 143.797 24.2658 143.104C24.6498 142.411 25.1831 141.877 25.8658 141.504C26.5485 141.131 27.3325 140.944 28.2178 140.944C29.0818 140.944 29.8498 141.125 30.5218 141.488C31.1938 141.851 31.7165 142.368 32.0898 143.04C32.4738 143.712 32.6658 144.496 32.6658 145.392ZM29.8658 144.672C29.8658 144.203 29.7058 143.829 29.3858 143.552C29.0658 143.275 28.6658 143.136 28.1858 143.136C27.7271 143.136 27.3378 143.269 27.0178 143.536C26.7085 143.803 26.5165 144.181 26.4418 144.672H29.8658ZM39.5492 140.976C40.5945 140.976 41.4265 141.317 42.0452 142C42.6745 142.672 42.9892 143.6 42.9892 144.784V150H40.2692V145.152C40.2692 144.555 40.1145 144.091 39.8052 143.76C39.4959 143.429 39.0799 143.264 38.5572 143.264C38.0345 143.264 37.6185 143.429 37.3092 143.76C36.9999 144.091 36.8452 144.555 36.8452 145.152V150H34.1092V141.072H36.8452V142.256C37.1225 141.861 37.4959 141.552 37.9652 141.328C38.4345 141.093 38.9625 140.976 39.5492 140.976ZM44.3464 145.536C44.3464 144.608 44.5331 143.797 44.9064 143.104C45.2904 142.411 45.8184 141.877 46.4904 141.504C47.1731 141.131 47.9518 140.944 48.8264 140.944C49.9464 140.944 50.8798 141.237 51.6264 141.824C52.3838 142.411 52.8798 143.237 53.1144 144.304H50.2024C49.9571 143.621 49.4824 143.28 48.7784 143.28C48.2771 143.28 47.8771 143.477 47.5784 143.872C47.2798 144.256 47.1304 144.811 47.1304 145.536C47.1304 146.261 47.2798 146.821 47.5784 147.216C47.8771 147.6 48.2771 147.792 48.7784 147.792C49.4824 147.792 49.9571 147.451 50.2024 146.768H53.1144C52.8798 147.813 52.3838 148.635 51.6264 149.232C50.8691 149.829 49.9358 150.128 48.8264 150.128C47.9518 150.128 47.1731 149.941 46.4904 149.568C45.8184 149.195 45.2904 148.661 44.9064 147.968C44.5331 147.275 44.3464 146.464 44.3464 145.536ZM58.6419 150.128C57.7673 150.128 56.9779 149.941 56.2739 149.568C55.5806 149.195 55.0313 148.661 54.6259 147.968C54.2313 147.275 54.0339 146.464 54.0339 145.536C54.0339 144.619 54.2366 143.813 54.6419 143.12C55.0473 142.416 55.6019 141.877 56.3059 141.504C57.0099 141.131 57.7993 140.944 58.6739 140.944C59.5486 140.944 60.3379 141.131 61.0419 141.504C61.7459 141.877 62.3006 142.416 62.7059 143.12C63.1113 143.813 63.3139 144.619 63.3139 145.536C63.3139 146.453 63.1059 147.264 62.6899 147.968C62.2846 148.661 61.7246 149.195 61.0099 149.568C60.3059 149.941 59.5166 150.128 58.6419 150.128ZM58.6419 147.76C59.1646 147.76 59.6073 147.568 59.9699 147.184C60.3433 146.8 60.5299 146.251 60.5299 145.536C60.5299 144.821 60.3486 144.272 59.9859 143.888C59.6339 143.504 59.1966 143.312 58.6739 143.312C58.1406 143.312 57.6979 143.504 57.3459 143.888C56.9939 144.261 56.8179 144.811 56.8179 145.536C56.8179 146.251 56.9886 146.8 57.3299 147.184C57.6819 147.568 58.1193 147.76 58.6419 147.76ZM70.2054 140.976C71.2508 140.976 72.0828 141.317 72.7014 142C73.3308 142.672 73.6454 143.6 73.6454 144.784V150H70.9254V145.152C70.9254 144.555 70.7708 144.091 70.4614 143.76C70.1521 143.429 69.7361 143.264 69.2134 143.264C68.6908 143.264 68.2748 143.429 67.9654 143.76C67.6561 144.091 67.5014 144.555 67.5014 145.152V150H64.7654V141.072H67.5014V142.256C67.7788 141.861 68.1521 141.552 68.6214 141.328C69.0908 141.093 69.6188 140.976 70.2054 140.976ZM80.5227 147.68V150H79.1307C78.1387 150 77.3654 149.76 76.8107 149.28C76.256 148.789 75.9787 147.995 75.9787 146.896V143.344H74.8907V141.072H75.9787V138.896H78.7147V141.072H80.5067V143.344H78.7147V146.928C78.7147 147.195 78.7787 147.387 78.9067 147.504C79.0347 147.621 79.248 147.68 79.5467 147.68H80.5227ZM84.7827 142.56C85.1027 142.069 85.5027 141.685 85.9827 141.408C86.4627 141.12 86.996 140.976 87.5827 140.976V143.872H86.8307C86.148 143.872 85.636 144.021 85.2947 144.32C84.9534 144.608 84.7827 145.12 84.7827 145.856V150H82.0467V141.072H84.7827V142.56ZM88.3464 145.52C88.3464 144.603 88.5171 143.797 88.8584 143.104C89.2104 142.411 89.6851 141.877 90.2824 141.504C90.8798 141.131 91.5464 140.944 92.2824 140.944C92.9118 140.944 93.4611 141.072 93.9304 141.328C94.4104 141.584 94.7784 141.92 95.0344 142.336V141.072H97.7704V150H95.0344V148.736C94.7678 149.152 94.3944 149.488 93.9144 149.744C93.4451 150 92.8958 150.128 92.2664 150.128C91.5411 150.128 90.8798 149.941 90.2824 149.568C89.6851 149.184 89.2104 148.645 88.8584 147.952C88.5171 147.248 88.3464 146.437 88.3464 145.52ZM95.0344 145.536C95.0344 144.853 94.8424 144.315 94.4584 143.92C94.0851 143.525 93.6264 143.328 93.0824 143.328C92.5384 143.328 92.0744 143.525 91.6904 143.92C91.3171 144.304 91.1304 144.837 91.1304 145.52C91.1304 146.203 91.3171 146.747 91.6904 147.152C92.0744 147.547 92.5384 147.744 93.0824 147.744C93.6264 147.744 94.0851 147.547 94.4584 147.152C94.8424 146.757 95.0344 146.219 95.0344 145.536ZM99.2058 145.52C99.2058 144.603 99.3765 143.797 99.7178 143.104C100.07 142.411 100.544 141.877 101.142 141.504C101.739 141.131 102.406 140.944 103.142 140.944C103.728 140.944 104.262 141.067 104.742 141.312C105.232 141.557 105.616 141.888 105.894 142.304V138.16H108.63V150H105.894V148.72C105.638 149.147 105.27 149.488 104.79 149.744C104.32 150 103.771 150.128 103.142 150.128C102.406 150.128 101.739 149.941 101.142 149.568C100.544 149.184 100.07 148.645 99.7178 147.952C99.3765 147.248 99.2058 146.437 99.2058 145.52ZM105.894 145.536C105.894 144.853 105.702 144.315 105.318 143.92C104.944 143.525 104.486 143.328 103.942 143.328C103.398 143.328 102.934 143.525 102.55 143.92C102.176 144.304 101.99 144.837 101.99 145.52C101.99 146.203 102.176 146.747 102.55 147.152C102.934 147.547 103.398 147.744 103.942 147.744C104.486 147.744 104.944 147.547 105.318 147.152C105.702 146.757 105.894 146.219 105.894 145.536ZM110.065 145.52C110.065 144.603 110.236 143.797 110.577 143.104C110.929 142.411 111.404 141.877 112.001 141.504C112.599 141.131 113.265 140.944 114.001 140.944C114.631 140.944 115.18 141.072 115.649 141.328C116.129 141.584 116.497 141.92 116.753 142.336V141.072H119.489V150H116.753V148.736C116.487 149.152 116.113 149.488 115.633 149.744C115.164 150 114.615 150.128 113.985 150.128C113.26 150.128 112.599 149.941 112.001 149.568C111.404 149.184 110.929 148.645 110.577 147.952C110.236 147.248 110.065 146.437 110.065 145.52ZM116.753 145.536C116.753 144.853 116.561 144.315 116.177 143.92C115.804 143.525 115.345 143.328 114.801 143.328C114.257 143.328 113.793 143.525 113.409 143.92C113.036 144.304 112.849 144.837 112.849 145.52C112.849 146.203 113.036 146.747 113.409 147.152C113.793 147.547 114.257 147.744 114.801 147.744C115.345 147.744 115.804 147.547 116.177 147.152C116.561 146.757 116.753 146.219 116.753 145.536ZM125.069 138.368L124.749 146.032H122.429L122.109 138.368H125.069ZM123.629 150.128C123.149 150.128 122.754 149.989 122.445 149.712C122.146 149.424 121.997 149.072 121.997 148.656C121.997 148.229 122.146 147.872 122.445 147.584C122.754 147.296 123.149 147.152 123.629 147.152C124.098 147.152 124.482 147.296 124.781 147.584C125.09 147.872 125.245 148.229 125.245 148.656C125.245 149.072 125.09 149.424 124.781 149.712C124.482 149.989 124.098 150.128 123.629 150.128Z" fill="#636363"/>
</svg>
