<svg width="150" height="200" viewBox="0 0 150 200" fill="none" xmlns="http://www.w3.org/2000/svg">
<path d="M148.5 1.5H1.5V198.5H148.5V1.5Z" fill="white" stroke="#79D379" stroke-width="3"/>
<path d="M60.7202 45.7555C48.8848 47.7625 38.0543 54.1553 35.542 60.6968C33.4206 66.1232 37.5518 70.8063 47.4891 74.077C51.7878 75.5637 53.7976 75.7124 65.7447 75.7867C76.7427 75.7867 79.9249 75.5637 83.442 74.4487C88.5781 72.8133 91.3695 70.5833 91.5928 67.8329C91.8161 65.0825 89.8063 63.4471 84.2236 61.9604L79.7574 60.7711L83.3862 60.3251C90.5879 59.4331 98.5154 62.0348 100.302 65.9002C101.698 68.9479 98.5712 73.4823 92.9327 76.3814C89.1364 78.3884 81.488 79.8751 72.4998 80.3955L64.1815 80.8415L68.3127 82.9972C72.3882 85.1529 72.6115 85.2272 80.2598 84.7812C99.4086 83.7405 113.086 76.753 114.929 66.9409C115.822 62.1834 108.229 56.8313 97.5663 54.527C91.9836 53.3376 75.4028 53.2633 70.2109 54.4526C64.349 55.7163 60.4411 57.5004 58.9896 59.4331C56.589 62.6295 59.0454 65.9745 62.2276 63.8188C66.1355 61.1428 72.2765 62.9268 70.7133 66.3462C68.7035 70.5833 56.1424 70.5089 51.397 66.1975C45.9818 61.3658 51.8436 54.1553 63.5674 51.1819C66.303 50.5129 72.444 49.7695 77.1893 49.4722L85.8426 49.0262L81.7672 46.9448C78.0826 45.1608 77.0218 44.9378 71.1599 45.0121C67.587 45.0865 62.8975 45.4581 60.7202 45.7555Z" fill="#55C855" fill-opacity="0.79"/>
<path d="M30.6301 120.384C30.6301 121.035 30.4808 121.632 30.1821 122.176C29.8835 122.709 29.4248 123.141 28.8061 123.472C28.1875 123.803 27.4195 123.968 26.5021 123.968H24.8061V128H22.0701V116.768H26.5021C27.3981 116.768 28.1555 116.923 28.7741 117.232C29.3928 117.541 29.8568 117.968 30.1661 118.512C30.4755 119.056 30.6301 119.68 30.6301 120.384ZM26.2941 121.792C26.8168 121.792 27.2061 121.669 27.4621 121.424C27.7181 121.179 27.8461 120.832 27.8461 120.384C27.8461 119.936 27.7181 119.589 27.4621 119.344C27.2061 119.099 26.8168 118.976 26.2941 118.976H24.8061V121.792H26.2941ZM34.7905 120.56C35.1105 120.069 35.5105 119.685 35.9905 119.408C36.4705 119.12 37.0038 118.976 37.5905 118.976V121.872H36.8385C36.1558 121.872 35.6438 122.021 35.3025 122.32C34.9612 122.608 34.7905 123.12 34.7905 123.856V128H32.0545V119.072H34.7905V120.56ZM42.9623 128.128C42.0876 128.128 41.2983 127.941 40.5943 127.568C39.9009 127.195 39.3516 126.661 38.9463 125.968C38.5516 125.275 38.3543 124.464 38.3543 123.536C38.3543 122.619 38.5569 121.813 38.9622 121.12C39.3676 120.416 39.9223 119.877 40.6263 119.504C41.3303 119.131 42.1196 118.944 42.9943 118.944C43.8689 118.944 44.6583 119.131 45.3623 119.504C46.0663 119.877 46.6209 120.416 47.0263 121.12C47.4316 121.813 47.6343 122.619 47.6343 123.536C47.6343 124.453 47.4263 125.264 47.0103 125.968C46.6049 126.661 46.0449 127.195 45.3303 127.568C44.6263 127.941 43.8369 128.128 42.9623 128.128ZM42.9623 125.76C43.4849 125.76 43.9276 125.568 44.2903 125.184C44.6636 124.8 44.8503 124.251 44.8503 123.536C44.8503 122.821 44.6689 122.272 44.3063 121.888C43.9543 121.504 43.5169 121.312 42.9943 121.312C42.4609 121.312 42.0183 121.504 41.6663 121.888C41.3143 122.261 41.1383 122.811 41.1383 123.536C41.1383 124.251 41.3089 124.8 41.6503 125.184C42.0023 125.568 42.4396 125.76 42.9623 125.76ZM48.5418 123.52C48.5418 122.603 48.7124 121.797 49.0538 121.104C49.4058 120.411 49.8804 119.877 50.4778 119.504C51.0751 119.131 51.7418 118.944 52.4778 118.944C53.0644 118.944 53.5978 119.067 54.0778 119.312C54.5684 119.557 54.9524 119.888 55.2298 120.304V116.16H57.9658V128H55.2298V126.72C54.9738 127.147 54.6058 127.488 54.1258 127.744C53.6564 128 53.1071 128.128 52.4778 128.128C51.7418 128.128 51.0751 127.941 50.4778 127.568C49.8804 127.184 49.4058 126.645 49.0538 125.952C48.7124 125.248 48.5418 124.437 48.5418 123.52ZM55.2298 123.536C55.2298 122.853 55.0378 122.315 54.6538 121.92C54.2804 121.525 53.8218 121.328 53.2778 121.328C52.7338 121.328 52.2698 121.525 51.8858 121.92C51.5124 122.304 51.3258 122.837 51.3258 123.52C51.3258 124.203 51.5124 124.747 51.8858 125.152C52.2698 125.547 52.7338 125.744 53.2778 125.744C53.8218 125.744 54.2804 125.547 54.6538 125.152C55.0378 124.757 55.2298 124.219 55.2298 123.536ZM68.7611 119.072V128H66.0251V126.784C65.7478 127.179 65.3691 127.499 64.8891 127.744C64.4198 127.979 63.8971 128.096 63.3211 128.096C62.6385 128.096 62.0358 127.947 61.5131 127.648C60.9905 127.339 60.5851 126.896 60.2971 126.32C60.0091 125.744 59.8651 125.067 59.8651 124.288V119.072H62.5851V123.92C62.5851 124.517 62.7398 124.981 63.0491 125.312C63.3585 125.643 63.7745 125.808 64.2971 125.808C64.8305 125.808 65.2518 125.643 65.5611 125.312C65.8705 124.981 66.0251 124.517 66.0251 123.92V119.072H68.7611ZM75.7024 125.68V128H74.3104C73.3184 128 72.545 127.76 71.9904 127.28C71.4357 126.789 71.1584 125.995 71.1584 124.896V121.344H70.0704V119.072H71.1584V116.896H73.8944V119.072H75.6864V121.344H73.8944V124.928C73.8944 125.195 73.9584 125.387 74.0864 125.504C74.2144 125.621 74.4277 125.68 74.7264 125.68H75.7024ZM81.2904 128.128C80.4157 128.128 79.6264 127.941 78.9224 127.568C78.229 127.195 77.6797 126.661 77.2744 125.968C76.8797 125.275 76.6824 124.464 76.6824 123.536C76.6824 122.619 76.885 121.813 77.2904 121.12C77.6957 120.416 78.2504 119.877 78.9544 119.504C79.6584 119.131 80.4477 118.944 81.3224 118.944C82.197 118.944 82.9864 119.131 83.6904 119.504C84.3944 119.877 84.949 120.416 85.3544 121.12C85.7597 121.813 85.9624 122.619 85.9624 123.536C85.9624 124.453 85.7544 125.264 85.3384 125.968C84.933 126.661 84.373 127.195 83.6584 127.568C82.9544 127.941 82.165 128.128 81.2904 128.128ZM81.2904 125.76C81.813 125.76 82.2557 125.568 82.6184 125.184C82.9917 124.8 83.1784 124.251 83.1784 123.536C83.1784 122.821 82.997 122.272 82.6344 121.888C82.2824 121.504 81.845 121.312 81.3224 121.312C80.789 121.312 80.3464 121.504 79.9944 121.888C79.6424 122.261 79.4664 122.811 79.4664 123.536C79.4664 124.251 79.637 124.8 79.9784 125.184C80.3304 125.568 80.7677 125.76 81.2904 125.76ZM94.4365 128.128C93.6578 128.128 92.9645 127.995 92.3565 127.728C91.7485 127.461 91.2685 127.099 90.9165 126.64C90.5645 126.171 90.3672 125.648 90.3245 125.072H93.0285C93.0605 125.381 93.2045 125.632 93.4605 125.824C93.7165 126.016 94.0312 126.112 94.4045 126.112C94.7458 126.112 95.0072 126.048 95.1885 125.92C95.3805 125.781 95.4765 125.605 95.4765 125.392C95.4765 125.136 95.3432 124.949 95.0765 124.832C94.8098 124.704 94.3778 124.565 93.7805 124.416C93.1405 124.267 92.6072 124.112 92.1805 123.952C91.7538 123.781 91.3858 123.52 91.0765 123.168C90.7672 122.805 90.6125 122.32 90.6125 121.712C90.6125 121.2 90.7512 120.736 91.0285 120.32C91.3165 119.893 91.7325 119.557 92.2765 119.312C92.8312 119.067 93.4872 118.944 94.2445 118.944C95.3645 118.944 96.2445 119.221 96.8845 119.776C97.5352 120.331 97.9085 121.067 98.0045 121.984H95.4765C95.4338 121.675 95.2952 121.429 95.0605 121.248C94.8365 121.067 94.5378 120.976 94.1645 120.976C93.8445 120.976 93.5992 121.04 93.4285 121.168C93.2578 121.285 93.1725 121.451 93.1725 121.664C93.1725 121.92 93.3058 122.112 93.5725 122.24C93.8498 122.368 94.2765 122.496 94.8525 122.624C95.5138 122.795 96.0525 122.965 96.4685 123.136C96.8845 123.296 97.2472 123.563 97.5565 123.936C97.8765 124.299 98.0418 124.789 98.0525 125.408C98.0525 125.931 97.9032 126.4 97.6045 126.816C97.3165 127.221 96.8952 127.541 96.3405 127.776C95.7965 128.011 95.1618 128.128 94.4365 128.128ZM108.142 123.392C108.142 123.648 108.126 123.915 108.094 124.192H101.902C101.945 124.747 102.121 125.173 102.43 125.472C102.75 125.76 103.14 125.904 103.598 125.904C104.281 125.904 104.756 125.616 105.022 125.04H107.934C107.785 125.627 107.513 126.155 107.118 126.624C106.734 127.093 106.249 127.461 105.662 127.728C105.076 127.995 104.42 128.128 103.694 128.128C102.82 128.128 102.041 127.941 101.358 127.568C100.676 127.195 100.142 126.661 99.7584 125.968C99.3744 125.275 99.1824 124.464 99.1824 123.536C99.1824 122.608 99.369 121.797 99.7424 121.104C100.126 120.411 100.66 119.877 101.342 119.504C102.025 119.131 102.809 118.944 103.694 118.944C104.558 118.944 105.326 119.125 105.998 119.488C106.67 119.851 107.193 120.368 107.566 121.04C107.95 121.712 108.142 122.496 108.142 123.392ZM105.342 122.672C105.342 122.203 105.182 121.829 104.862 121.552C104.542 121.275 104.142 121.136 103.662 121.136C103.204 121.136 102.814 121.269 102.494 121.536C102.185 121.803 101.993 122.181 101.918 122.672H105.342ZM120.978 118.976C122.087 118.976 122.967 119.312 123.618 119.984C124.279 120.656 124.61 121.589 124.61 122.784V128H121.89V123.152C121.89 122.576 121.735 122.133 121.426 121.824C121.127 121.504 120.711 121.344 120.178 121.344C119.644 121.344 119.223 121.504 118.914 121.824C118.615 122.133 118.466 122.576 118.466 123.152V128H115.746V123.152C115.746 122.576 115.591 122.133 115.282 121.824C114.983 121.504 114.567 121.344 114.034 121.344C113.5 121.344 113.079 121.504 112.77 121.824C112.471 122.133 112.322 122.576 112.322 123.152V128H109.586V119.072H112.322V120.192C112.599 119.819 112.962 119.525 113.41 119.312C113.858 119.088 114.364 118.976 114.93 118.976C115.602 118.976 116.199 119.12 116.722 119.408C117.255 119.696 117.671 120.107 117.97 120.64C118.279 120.149 118.7 119.749 119.234 119.44C119.767 119.131 120.348 118.976 120.978 118.976ZM59.9934 142.976C61.1027 142.976 61.9827 143.312 62.6334 143.984C63.2947 144.656 63.6254 145.589 63.6254 146.784V152H60.9054V147.152C60.9054 146.576 60.7507 146.133 60.4414 145.824C60.1427 145.504 59.7267 145.344 59.1934 145.344C58.66 145.344 58.2387 145.504 57.9294 145.824C57.6307 146.133 57.4814 146.576 57.4814 147.152V152H54.7614V147.152C54.7614 146.576 54.6067 146.133 54.2974 145.824C53.9987 145.504 53.5827 145.344 53.0494 145.344C52.516 145.344 52.0947 145.504 51.7854 145.824C51.4867 146.133 51.3374 146.576 51.3374 147.152V152H48.6014V143.072H51.3374V144.192C51.6147 143.819 51.9774 143.525 52.4254 143.312C52.8734 143.088 53.38 142.976 53.9454 142.976C54.6174 142.976 55.2147 143.12 55.7374 143.408C56.2707 143.696 56.6867 144.107 56.9854 144.64C57.2947 144.149 57.716 143.749 58.2494 143.44C58.7827 143.131 59.364 142.976 59.9934 142.976ZM68.4829 143.072V152H65.7469V143.072H68.4829ZM68.9789 140.848L65.1229 142.464V140.576L68.9789 138.72V140.848ZM70.1355 147.52C70.1355 146.603 70.3062 145.797 70.6475 145.104C70.9995 144.411 71.4742 143.877 72.0715 143.504C72.6688 143.131 73.3355 142.944 74.0715 142.944C74.6582 142.944 75.1915 143.067 75.6715 143.312C76.1622 143.557 76.5462 143.888 76.8235 144.304V140.16H79.5595V152H76.8235V150.72C76.5675 151.147 76.1995 151.488 75.7195 151.744C75.2502 152 74.7008 152.128 74.0715 152.128C73.3355 152.128 72.6688 151.941 72.0715 151.568C71.4742 151.184 70.9995 150.645 70.6475 149.952C70.3062 149.248 70.1355 148.437 70.1355 147.52ZM76.8235 147.536C76.8235 146.853 76.6315 146.315 76.2475 145.92C75.8742 145.525 75.4155 145.328 74.8715 145.328C74.3275 145.328 73.8635 145.525 73.4795 145.92C73.1062 146.304 72.9195 146.837 72.9195 147.52C72.9195 148.203 73.1062 148.747 73.4795 149.152C73.8635 149.547 74.3275 149.744 74.8715 149.744C75.4155 149.744 75.8742 149.547 76.2475 149.152C76.6315 148.757 76.8235 148.219 76.8235 147.536ZM82.9149 142.144C82.4349 142.144 82.0402 142.005 81.7309 141.728C81.4322 141.44 81.2829 141.088 81.2829 140.672C81.2829 140.245 81.4322 139.893 81.7309 139.616C82.0402 139.328 82.4349 139.184 82.9149 139.184C83.3842 139.184 83.7682 139.328 84.0669 139.616C84.3762 139.893 84.5309 140.245 84.5309 140.672C84.5309 141.088 84.3762 141.44 84.0669 141.728C83.7682 142.005 83.3842 142.144 82.9149 142.144ZM84.2749 143.072V152H81.5389V143.072H84.2749ZM85.7136 147.52C85.7136 146.603 85.8843 145.797 86.2256 145.104C86.5776 144.411 87.0523 143.877 87.6496 143.504C88.247 143.131 88.9136 142.944 89.6496 142.944C90.279 142.944 90.8283 143.072 91.2976 143.328C91.7776 143.584 92.1456 143.92 92.4016 144.336V143.072H95.1376V152H92.4016V150.736C92.135 151.152 91.7616 151.488 91.2816 151.744C90.8123 152 90.263 152.128 89.6336 152.128C88.9083 152.128 88.247 151.941 87.6496 151.568C87.0523 151.184 86.5776 150.645 86.2256 149.952C85.8843 149.248 85.7136 148.437 85.7136 147.52ZM92.4016 147.536C92.4016 146.853 92.2096 146.315 91.8256 145.92C91.4523 145.525 90.9936 145.328 90.4496 145.328C89.9056 145.328 89.4416 145.525 89.0576 145.92C88.6843 146.304 88.4976 146.837 88.4976 147.52C88.4976 148.203 88.6843 148.747 89.0576 149.152C89.4416 149.547 89.9056 149.744 90.4496 149.744C90.9936 149.744 91.4523 149.547 91.8256 149.152C92.2096 148.757 92.4016 148.219 92.4016 147.536ZM100.717 140.368L100.397 148.032H98.077L97.757 140.368H100.717ZM99.277 152.128C98.797 152.128 98.4023 151.989 98.093 151.712C97.7943 151.424 97.645 151.072 97.645 150.656C97.645 150.229 97.7943 149.872 98.093 149.584C98.4023 149.296 98.797 149.152 99.277 149.152C99.7463 149.152 100.13 149.296 100.429 149.584C100.738 149.872 100.893 150.229 100.893 150.656C100.893 151.072 100.738 151.424 100.429 151.712C100.13 151.989 99.7463 152.128 99.277 152.128Z" fill="#636363"/>
</svg>
